<svg xmlns="http://www.w3.org/2000/svg" xmlns:xlink="http://www.w3.org/1999/xlink" width="500" zoomAndPan="magnify" viewBox="0 0 375 374.999991" height="500" preserveAspectRatio="xMidYMid meet" version="1.0"><defs><g/></defs><g fill="#2b2b2b" fill-opacity="1"><g transform="translate(114.810158, 231.374985)"><g><path d="M 42.164062 0 L 63.539062 0 L 30.597656 -78.910156 L 20.789062 -52.265625 Z M 42.164062 0 "/></g></g></g><g fill="#2b2b2b" fill-opacity="1"><g transform="translate(175.268891, 231.374985)"><g><path d="M 6.148438 0 L 24.300781 0 L 24.300781 -77.152344 L 6.148438 -77.152344 Z M 33.820312 -31.035156 C 33.820312 -31.035156 58.707031 -28.988281 58.707031 -54.023438 C 58.707031 -77.152344 31.035156 -77.152344 31.035156 -77.152344 C 31.035156 -77.152344 43.480469 -76.421875 43.480469 -54.167969 C 43.480469 -32.207031 33.820312 -31.035156 33.820312 -31.035156 Z M 33.820312 -31.035156 "/></g></g></g><g fill="#2b2b2b" fill-opacity="1"><g transform="translate(229.72561, 231.374985)"><g><path d="M 6.148438 0 L 24.300781 0 L 24.300781 -77.152344 L 6.148438 -77.152344 Z M 6.148438 0 "/></g></g></g><g fill="#2b2b2b" fill-opacity="1"><g transform="translate(254.321868, 231.374985)"><g/></g></g><g fill="#2b2b2b" fill-opacity="1"><g transform="translate(209.115343, 244.029594)"><g><path d="M 0.648438 0 L 1.78125 0 L 1.78125 -2.4375 L 2.824219 -2.4375 L 4.796875 0 L 6.085938 0 L 3.941406 -2.519531 L 4.140625 -2.527344 C 5.257812 -2.617188 6.011719 -3.339844 6.011719 -4.382812 C 6.011719 -5.597656 5.066406 -6.371094 3.601562 -6.371094 L 0.648438 -6.371094 Z M 1.78125 -3.214844 L 1.78125 -5.527344 L 3.421875 -5.527344 C 4.292969 -5.527344 4.867188 -5.101562 4.867188 -4.375 C 4.867188 -3.664062 4.285156 -3.214844 3.421875 -3.214844 Z M 1.78125 -3.214844 "/></g></g></g><g fill="#2b2b2b" fill-opacity="1"><g transform="translate(216.675388, 244.029594)"><g><path d="M 0.648438 0 L 5.363281 0 L 5.363281 -0.917969 L 1.746094 -0.917969 L 1.746094 -2.878906 L 5.011719 -2.878906 L 5.011719 -3.652344 L 1.746094 -3.652344 L 1.746094 -5.464844 L 5.273438 -5.464844 L 5.273438 -6.371094 L 0.648438 -6.371094 Z M 0.648438 0 "/></g></g></g><g fill="#2b2b2b" fill-opacity="1"><g transform="translate(223.53343, 244.029594)"><g><path d="M 3.175781 0.171875 C 4.824219 0.171875 5.902344 -0.59375 5.902344 -1.789062 C 5.902344 -3.230469 4.519531 -3.445312 3.382812 -3.617188 C 2.484375 -3.753906 1.664062 -3.886719 1.664062 -4.644531 C 1.664062 -5.265625 2.214844 -5.707031 3.121094 -5.707031 C 4.066406 -5.707031 4.679688 -5.210938 4.679688 -4.390625 L 5.722656 -4.390625 C 5.714844 -5.6875 4.679688 -6.550781 3.078125 -6.550781 C 1.519531 -6.550781 0.523438 -5.761719 0.523438 -4.570312 C 0.523438 -3.105469 1.953125 -2.925781 3.078125 -2.761719 C 3.960938 -2.628906 4.769531 -2.503906 4.769531 -1.726562 C 4.769531 -1.089844 4.15625 -0.675781 3.222656 -0.675781 C 2.167969 -0.675781 1.519531 -1.207031 1.519531 -2.070312 L 0.449219 -2.0625 C 0.449219 -0.71875 1.53125 0.171875 3.175781 0.171875 Z M 3.175781 0.171875 "/></g></g></g><g fill="#2b2b2b" fill-opacity="1"><g transform="translate(231.030475, 244.029594)"><g><path d="M 2.269531 0 L 3.402344 0 L 3.402344 -5.425781 L 5.535156 -5.425781 L 5.535156 -6.371094 L 0.144531 -6.371094 L 0.144531 -5.425781 L 2.269531 -5.425781 Z M 2.269531 0 "/></g></g></g><g fill="#2b2b2b" fill-opacity="1"><g transform="translate(237.843519, 244.029594)"><g><path d="M 0.964844 0 L 1.980469 0 L 1.980469 -3.816406 L 3.085938 -3.816406 L 3.085938 -4.570312 L 1.980469 -4.570312 L 1.980469 -5.292969 C 1.980469 -5.714844 2.242188 -5.914062 2.609375 -5.914062 C 2.761719 -5.914062 2.996094 -5.886719 3.140625 -5.839844 L 3.140625 -6.667969 C 2.898438 -6.742188 2.574219 -6.785156 2.296875 -6.785156 C 1.503906 -6.785156 0.964844 -6.238281 0.964844 -5.292969 L 0.964844 -4.570312 L 0.261719 -4.570312 L 0.261719 -3.816406 L 0.964844 -3.816406 Z M 0.964844 0 "/></g></g></g><g fill="#2b2b2b" fill-opacity="1"><g transform="translate(242.334546, 244.029594)"><g><path d="M 2.25 0.144531 C 2.90625 0.144531 3.421875 -0.1875 3.742188 -0.78125 L 3.816406 -0.78125 L 3.816406 0 L 4.84375 0 L 4.84375 -4.570312 L 3.816406 -4.570312 L 3.816406 -1.953125 C 3.816406 -1.242188 3.292969 -0.730469 2.636719 -0.730469 C 1.960938 -0.730469 1.539062 -1.25 1.539062 -1.988281 L 1.539062 -4.570312 L 0.511719 -4.570312 L 0.511719 -1.816406 C 0.511719 -0.683594 1.207031 0.144531 2.25 0.144531 Z M 2.25 0.144531 "/></g></g></g><g fill="#2b2b2b" fill-opacity="1"><g transform="translate(248.913583, 244.029594)"><g><path d="M 0.585938 0 L 1.609375 0 L 1.609375 -6.640625 L 0.585938 -6.640625 Z M 0.585938 0 "/></g></g></g><g fill="#2b2b2b" fill-opacity="1"><g transform="translate(152.836066, 234.106171)"><g><path d="M -8.878906 -21.976562 L -15.203125 -37.621094 L -46.675781 -1.007812 L -40.738281 13.683594 Z M -8.878906 -21.976562 "/></g></g></g><g fill="#2b2b2b" fill-opacity="1"><g transform="translate(138.646243, 198.990366)"><g/></g></g></svg>