<svg xmlns="http://www.w3.org/2000/svg" xmlns:xlink="http://www.w3.org/1999/xlink" width="500" zoomAndPan="magnify" viewBox="0 0 375 374.999991" height="500" preserveAspectRatio="xMidYMid meet" version="1.0"><defs><g/><clipPath id="0d1f01aa05"><path d="M 141 175 L 189 175 L 189 240 L 141 240 Z M 141 175 " clip-rule="nonzero"/></clipPath><clipPath id="63d9f48a2b"><path d="M 183.484375 175.734375 L 188.828125 179.457031 L 146.800781 239.828125 L 141.453125 236.105469 Z M 183.484375 175.734375 " clip-rule="nonzero"/></clipPath><clipPath id="cf2d736316"><path d="M 183.484375 175.734375 L 188.828125 179.457031 L 146.808594 239.820312 L 141.460938 236.097656 Z M 183.484375 175.734375 " clip-rule="nonzero"/></clipPath></defs><g clip-path="url(#0d1f01aa05)"><g clip-path="url(#63d9f48a2b)"><g clip-path="url(#cf2d736316)"><path fill="#100f0f" d="M 183.484375 175.734375 L 188.828125 179.457031 L 146.800781 239.828125 L 141.453125 236.105469 Z M 183.484375 175.734375 " fill-opacity="1" fill-rule="nonzero"/></g></g></g><g fill="#100f0f" fill-opacity="1"><g transform="translate(144.365431, 190.014553)"><g><path d="M 18.609375 -4.203125 C 13.753906 -2.929688 9.46875 -3.441406 5.75 -5.734375 C 2.03125 -8.023438 -0.523438 -11.828125 -1.921875 -17.140625 L -9.953125 -47.859375 C -11.691406 -54.484375 -11.675781 -59.820312 -9.90625 -63.875 C -8.144531 -67.925781 -4.445312 -70.6875 1.1875 -72.15625 C 6.09375 -73.445312 10.394531 -73.140625 14.09375 -71.234375 C 17.800781 -69.335938 20.316406 -65.859375 21.640625 -60.796875 L 24.640625 -49.3125 L 11.375 -45.828125 L 8.796875 -55.671875 C 8.296875 -57.585938 7.71875 -58.847656 7.0625 -59.453125 C 6.414062 -60.054688 5.523438 -60.207031 4.390625 -59.90625 C 3.191406 -59.601562 2.476562 -58.976562 2.25 -58.03125 C 2.03125 -57.09375 2.132812 -55.820312 2.5625 -54.21875 L 11.3125 -20.78125 C 11.769531 -19.03125 12.359375 -17.816406 13.078125 -17.140625 C 13.804688 -16.472656 14.691406 -16.273438 15.734375 -16.546875 C 17.796875 -17.085938 18.390625 -19.035156 17.515625 -22.390625 L 14.359375 -34.421875 L 27.78125 -37.9375 L 31.078125 -25.359375 C 33.992188 -14.191406 29.835938 -7.140625 18.609375 -4.203125 Z M 18.609375 -4.203125 "/></g></g></g><g fill="#100f0f" fill-opacity="1"><g transform="translate(176.868885, 181.508015)"><g/></g></g><g fill="#100f0f" fill-opacity="1"><g transform="translate(190.754286, 177.874042)"><g><path d="M 2.328125 -0.609375 L -15.109375 -67.234375 L -2.234375 -70.609375 L 15.203125 -3.984375 Z M 2.328125 -0.609375 "/></g></g></g><g fill="#100f0f" fill-opacity="1"><g transform="translate(199.316859, 250.255485)"><g><path d="M 45.671875 -53.765625 L 61.03125 -41.859375 C 65.007812 -38.773438 67.132812 -35.359375 67.40625 -31.609375 C 67.675781 -27.867188 66.160156 -23.820312 62.859375 -19.46875 L 42.78125 6.703125 C 38.5625 12.222656 34.40625 15.613281 30.3125 16.875 C 26.226562 18.132812 21.9375 17.019531 17.4375 13.53125 L 2.46875 1.921875 Z M 23.265625 2.25 C 25.296875 3.832031 27.082031 3.628906 28.625 1.640625 L 50.90625 -27.078125 C 51.875 -28.328125 52.503906 -29.335938 52.796875 -30.109375 C 53.085938 -30.890625 53.054688 -31.585938 52.703125 -32.203125 C 52.359375 -32.828125 51.644531 -33.5625 50.5625 -34.40625 L 49.328125 -35.359375 L 21.3125 0.75 Z M 23.265625 2.25 "/></g></g></g><g fill="#100f0f" fill-opacity="1"><g transform="translate(171.690672, 239.538551)"><g><path d="M 18.484375 6.34375 C 13.566406 4.832031 10.101562 2.082031 8.09375 -1.90625 C 6.082031 -5.894531 5.898438 -10.578125 7.546875 -15.953125 L 17.0625 -47.03125 C 19.113281 -53.71875 21.988281 -58.359375 25.6875 -60.953125 C 29.394531 -63.546875 34.101562 -63.96875 39.8125 -62.21875 C 44.78125 -60.695312 48.363281 -58.109375 50.5625 -54.453125 C 52.769531 -50.804688 53.085938 -46.421875 51.515625 -41.296875 L 47.96875 -29.6875 L 34.546875 -33.78125 L 37.59375 -43.75 C 38.1875 -45.675781 38.359375 -47.078125 38.109375 -47.953125 C 37.859375 -48.835938 37.160156 -49.457031 36.015625 -49.8125 C 34.816406 -50.175781 33.867188 -50.003906 33.171875 -49.296875 C 32.472656 -48.597656 31.875 -47.4375 31.375 -45.8125 L 21.015625 -12.015625 C 20.472656 -10.222656 20.335938 -8.84375 20.609375 -7.875 C 20.890625 -6.914062 21.550781 -6.273438 22.59375 -5.953125 C 24.6875 -5.304688 26.25 -6.6875 27.28125 -10.09375 L 31.015625 -22.25 L 44.578125 -18.109375 L 40.6875 -5.390625 C 37.226562 5.898438 29.828125 9.8125 18.484375 6.34375 Z M 18.484375 6.34375 "/></g></g></g><g fill="#100f0f" fill-opacity="1"><g transform="translate(128.112585, 112.940447)"><g><path d="M 1.421875 -0.4375 C 1.421875 -0.3125 1.375 -0.207031 1.28125 -0.125 C 1.195312 -0.0390625 1.09375 0 0.96875 0 C 0.84375 0 0.738281 -0.0390625 0.65625 -0.125 C 0.570312 -0.207031 0.53125 -0.3125 0.53125 -0.4375 L 0.53125 -4.546875 C 0.53125 -4.671875 0.570312 -4.773438 0.65625 -4.859375 C 0.75 -4.941406 0.859375 -4.984375 0.984375 -4.984375 C 1.097656 -4.984375 1.195312 -4.941406 1.28125 -4.859375 C 1.375 -4.773438 1.421875 -4.671875 1.421875 -4.546875 Z M 1.421875 -0.4375 "/></g></g></g><g fill="#100f0f" fill-opacity="1"><g transform="translate(129.892208, 112.940447)"><g><path d="M 4.3125 -4.984375 C 4.425781 -4.984375 4.519531 -4.945312 4.59375 -4.875 C 4.664062 -4.800781 4.703125 -4.707031 4.703125 -4.59375 L 4.703125 -0.4375 C 4.703125 -0.3125 4.660156 -0.207031 4.578125 -0.125 C 4.492188 -0.0390625 4.390625 0 4.265625 0 C 4.203125 0 4.140625 -0.0078125 4.078125 -0.03125 C 4.015625 -0.0507812 3.96875 -0.0820312 3.9375 -0.125 L 1.140625 -3.671875 L 1.3125 -3.796875 L 1.3125 -0.40625 C 1.3125 -0.289062 1.273438 -0.191406 1.203125 -0.109375 C 1.128906 -0.0351562 1.035156 0 0.921875 0 C 0.804688 0 0.710938 -0.0351562 0.640625 -0.109375 C 0.566406 -0.191406 0.53125 -0.289062 0.53125 -0.40625 L 0.53125 -4.546875 C 0.53125 -4.671875 0.570312 -4.773438 0.65625 -4.859375 C 0.738281 -4.941406 0.84375 -4.984375 0.96875 -4.984375 C 1.03125 -4.984375 1.097656 -4.96875 1.171875 -4.9375 C 1.242188 -4.914062 1.296875 -4.878906 1.328125 -4.828125 L 4.046875 -1.375 L 3.921875 -1.28125 L 3.921875 -4.59375 C 3.921875 -4.707031 3.957031 -4.800781 4.03125 -4.875 C 4.101562 -4.945312 4.195312 -4.984375 4.3125 -4.984375 Z M 4.3125 -4.984375 "/></g></g></g><g fill="#100f0f" fill-opacity="1"><g transform="translate(134.946348, 112.940447)"><g><path d="M 2.21875 0 C 2.09375 0 1.984375 -0.0390625 1.890625 -0.125 C 1.804688 -0.207031 1.765625 -0.3125 1.765625 -0.4375 L 1.765625 -4.5625 L 2.6875 -4.5625 L 2.6875 -0.4375 C 2.6875 -0.3125 2.640625 -0.207031 2.546875 -0.125 C 2.460938 -0.0390625 2.351562 0 2.21875 0 Z M 0.640625 -4.171875 C 0.523438 -4.171875 0.425781 -4.207031 0.34375 -4.28125 C 0.257812 -4.351562 0.21875 -4.453125 0.21875 -4.578125 C 0.21875 -4.703125 0.257812 -4.800781 0.34375 -4.875 C 0.425781 -4.945312 0.523438 -4.984375 0.640625 -4.984375 L 3.8125 -4.984375 C 3.9375 -4.984375 4.039062 -4.945312 4.125 -4.875 C 4.207031 -4.800781 4.25 -4.703125 4.25 -4.578125 C 4.25 -4.453125 4.207031 -4.351562 4.125 -4.28125 C 4.039062 -4.207031 3.9375 -4.171875 3.8125 -4.171875 Z M 0.640625 -4.171875 "/></g></g></g><g fill="#100f0f" fill-opacity="1"><g transform="translate(139.224568, 112.940447)"><g><path d="M 0.96875 -4.984375 L 3.359375 -4.984375 C 3.484375 -4.984375 3.585938 -4.941406 3.671875 -4.859375 C 3.753906 -4.785156 3.796875 -4.6875 3.796875 -4.5625 C 3.796875 -4.445312 3.753906 -4.351562 3.671875 -4.28125 C 3.585938 -4.207031 3.484375 -4.171875 3.359375 -4.171875 L 1.359375 -4.171875 L 1.421875 -4.296875 L 1.421875 -2.90625 L 1.375 -2.953125 L 3.03125 -2.953125 C 3.15625 -2.953125 3.257812 -2.910156 3.34375 -2.828125 C 3.425781 -2.753906 3.46875 -2.65625 3.46875 -2.53125 C 3.46875 -2.414062 3.425781 -2.320312 3.34375 -2.25 C 3.257812 -2.175781 3.15625 -2.140625 3.03125 -2.140625 L 1.390625 -2.140625 L 1.421875 -2.1875 L 1.421875 -0.75 L 1.375 -0.8125 L 3.359375 -0.8125 C 3.484375 -0.8125 3.585938 -0.769531 3.671875 -0.6875 C 3.753906 -0.601562 3.796875 -0.507812 3.796875 -0.40625 C 3.796875 -0.289062 3.753906 -0.191406 3.671875 -0.109375 C 3.585938 -0.0351562 3.484375 0 3.359375 0 L 0.96875 0 C 0.84375 0 0.738281 -0.0390625 0.65625 -0.125 C 0.570312 -0.207031 0.53125 -0.3125 0.53125 -0.4375 L 0.53125 -4.546875 C 0.53125 -4.671875 0.570312 -4.773438 0.65625 -4.859375 C 0.738281 -4.941406 0.84375 -4.984375 0.96875 -4.984375 Z M 0.96875 -4.984375 "/></g></g></g><g fill="#100f0f" fill-opacity="1"><g transform="translate(143.118386, 112.940447)"><g><path d="M 2.890625 0.078125 C 2.523438 0.078125 2.1875 0.0078125 1.875 -0.125 C 1.5625 -0.257812 1.285156 -0.441406 1.046875 -0.671875 C 0.804688 -0.910156 0.617188 -1.179688 0.484375 -1.484375 C 0.347656 -1.796875 0.28125 -2.132812 0.28125 -2.5 C 0.28125 -2.851562 0.347656 -3.179688 0.484375 -3.484375 C 0.617188 -3.796875 0.804688 -4.066406 1.046875 -4.296875 C 1.285156 -4.535156 1.5625 -4.722656 1.875 -4.859375 C 2.1875 -4.992188 2.523438 -5.0625 2.890625 -5.0625 C 3.109375 -5.0625 3.320312 -5.035156 3.53125 -4.984375 C 3.738281 -4.941406 3.929688 -4.875 4.109375 -4.78125 C 4.179688 -4.738281 4.234375 -4.6875 4.265625 -4.625 C 4.304688 -4.5625 4.328125 -4.492188 4.328125 -4.421875 C 4.328125 -4.304688 4.285156 -4.203125 4.203125 -4.109375 C 4.128906 -4.023438 4.035156 -3.984375 3.921875 -3.984375 C 3.878906 -3.984375 3.835938 -3.988281 3.796875 -4 C 3.753906 -4.007812 3.71875 -4.023438 3.6875 -4.046875 C 3.5625 -4.097656 3.429688 -4.132812 3.296875 -4.15625 C 3.171875 -4.1875 3.035156 -4.203125 2.890625 -4.203125 C 2.578125 -4.203125 2.289062 -4.125 2.03125 -3.96875 C 1.78125 -3.8125 1.582031 -3.601562 1.4375 -3.34375 C 1.289062 -3.09375 1.21875 -2.8125 1.21875 -2.5 C 1.21875 -2.1875 1.289062 -1.898438 1.4375 -1.640625 C 1.582031 -1.378906 1.78125 -1.171875 2.03125 -1.015625 C 2.289062 -0.859375 2.578125 -0.78125 2.890625 -0.78125 C 3.023438 -0.78125 3.175781 -0.796875 3.34375 -0.828125 C 3.519531 -0.859375 3.664062 -0.894531 3.78125 -0.9375 L 3.71875 -0.734375 L 3.71875 -1.9375 L 3.828125 -1.84375 L 3.046875 -1.84375 C 2.921875 -1.84375 2.816406 -1.878906 2.734375 -1.953125 C 2.648438 -2.035156 2.609375 -2.140625 2.609375 -2.265625 C 2.609375 -2.390625 2.648438 -2.488281 2.734375 -2.5625 C 2.816406 -2.644531 2.921875 -2.6875 3.046875 -2.6875 L 4.203125 -2.6875 C 4.328125 -2.6875 4.429688 -2.644531 4.515625 -2.5625 C 4.597656 -2.476562 4.640625 -2.378906 4.640625 -2.265625 L 4.640625 -0.75 C 4.640625 -0.65625 4.613281 -0.578125 4.5625 -0.515625 C 4.519531 -0.453125 4.472656 -0.398438 4.421875 -0.359375 C 4.203125 -0.222656 3.960938 -0.113281 3.703125 -0.03125 C 3.441406 0.0390625 3.171875 0.078125 2.890625 0.078125 Z M 2.890625 0.078125 "/></g></g></g><g fill="#100f0f" fill-opacity="1"><g transform="translate(147.894905, 112.940447)"><g><path d="M 1.046875 0 C 0.910156 0 0.789062 -0.0390625 0.6875 -0.125 C 0.582031 -0.207031 0.53125 -0.3125 0.53125 -0.4375 L 0.53125 -4.546875 C 0.53125 -4.671875 0.570312 -4.773438 0.65625 -4.859375 C 0.738281 -4.941406 0.84375 -4.984375 0.96875 -4.984375 L 3.015625 -4.984375 C 3.265625 -4.984375 3.5 -4.914062 3.71875 -4.78125 C 3.9375 -4.65625 4.109375 -4.476562 4.234375 -4.25 C 4.367188 -4.019531 4.4375 -3.753906 4.4375 -3.453125 C 4.4375 -3.273438 4.398438 -3.097656 4.328125 -2.921875 C 4.253906 -2.753906 4.15625 -2.601562 4.03125 -2.46875 C 3.90625 -2.332031 3.765625 -2.222656 3.609375 -2.140625 L 3.609375 -2.3125 C 3.742188 -2.238281 3.851562 -2.148438 3.9375 -2.046875 C 4.03125 -1.953125 4.097656 -1.847656 4.140625 -1.734375 C 4.191406 -1.628906 4.222656 -1.507812 4.234375 -1.375 C 4.253906 -1.257812 4.269531 -1.15625 4.28125 -1.0625 C 4.289062 -0.976562 4.304688 -0.90625 4.328125 -0.84375 C 4.347656 -0.78125 4.390625 -0.734375 4.453125 -0.703125 C 4.554688 -0.640625 4.617188 -0.546875 4.640625 -0.421875 C 4.671875 -0.304688 4.644531 -0.207031 4.5625 -0.125 C 4.507812 -0.0625 4.441406 -0.0195312 4.359375 0 C 4.273438 0.0078125 4.191406 0.0078125 4.109375 0 C 4.035156 -0.0195312 3.972656 -0.046875 3.921875 -0.078125 C 3.835938 -0.117188 3.753906 -0.1875 3.671875 -0.28125 C 3.597656 -0.375 3.535156 -0.5 3.484375 -0.65625 C 3.429688 -0.8125 3.40625 -1.015625 3.40625 -1.265625 C 3.40625 -1.335938 3.390625 -1.410156 3.359375 -1.484375 C 3.328125 -1.554688 3.285156 -1.613281 3.234375 -1.65625 C 3.179688 -1.707031 3.113281 -1.742188 3.03125 -1.765625 C 2.957031 -1.796875 2.863281 -1.8125 2.75 -1.8125 L 1.3125 -1.8125 L 1.421875 -1.984375 L 1.421875 -0.4375 C 1.421875 -0.3125 1.382812 -0.207031 1.3125 -0.125 C 1.25 -0.0390625 1.160156 0 1.046875 0 Z M 1.328125 -2.546875 L 2.984375 -2.546875 C 3.066406 -2.546875 3.148438 -2.582031 3.234375 -2.65625 C 3.316406 -2.738281 3.382812 -2.847656 3.4375 -2.984375 C 3.488281 -3.117188 3.515625 -3.269531 3.515625 -3.4375 C 3.515625 -3.644531 3.457031 -3.816406 3.34375 -3.953125 C 3.226562 -4.097656 3.109375 -4.171875 2.984375 -4.171875 L 1.34375 -4.171875 L 1.421875 -4.390625 L 1.421875 -2.375 Z M 1.328125 -2.546875 "/></g></g></g><g fill="#100f0f" fill-opacity="1"><g transform="translate(152.607357, 112.940447)"><g><path d="M 2.359375 -3.875 L 0.828125 -0.25 C 0.796875 -0.15625 0.742188 -0.0820312 0.671875 -0.03125 C 0.597656 0.0078125 0.523438 0.03125 0.453125 0.03125 C 0.316406 0.03125 0.21875 0 0.15625 -0.0625 C 0.101562 -0.132812 0.078125 -0.222656 0.078125 -0.328125 C 0.078125 -0.378906 0.0820312 -0.425781 0.09375 -0.46875 L 1.859375 -4.734375 C 1.898438 -4.828125 1.957031 -4.898438 2.03125 -4.953125 C 2.113281 -5.003906 2.203125 -5.023438 2.296875 -5.015625 C 2.378906 -5.015625 2.457031 -4.988281 2.53125 -4.9375 C 2.601562 -4.882812 2.65625 -4.816406 2.6875 -4.734375 L 4.453125 -0.5625 C 4.472656 -0.5 4.484375 -0.441406 4.484375 -0.390625 C 4.484375 -0.253906 4.441406 -0.148438 4.359375 -0.078125 C 4.273438 -0.00390625 4.179688 0.03125 4.078125 0.03125 C 3.992188 0.03125 3.914062 0.00390625 3.84375 -0.046875 C 3.78125 -0.0976562 3.726562 -0.164062 3.6875 -0.25 L 2.15625 -3.828125 Z M 1.046875 -1.125 L 1.4375 -1.9375 L 3.359375 -1.9375 L 3.5 -1.125 Z M 1.046875 -1.125 "/></g></g></g><g fill="#100f0f" fill-opacity="1"><g transform="translate(156.978122, 112.940447)"><g><path d="M 2.21875 0 C 2.09375 0 1.984375 -0.0390625 1.890625 -0.125 C 1.804688 -0.207031 1.765625 -0.3125 1.765625 -0.4375 L 1.765625 -4.5625 L 2.6875 -4.5625 L 2.6875 -0.4375 C 2.6875 -0.3125 2.640625 -0.207031 2.546875 -0.125 C 2.460938 -0.0390625 2.351562 0 2.21875 0 Z M 0.640625 -4.171875 C 0.523438 -4.171875 0.425781 -4.207031 0.34375 -4.28125 C 0.257812 -4.351562 0.21875 -4.453125 0.21875 -4.578125 C 0.21875 -4.703125 0.257812 -4.800781 0.34375 -4.875 C 0.425781 -4.945312 0.523438 -4.984375 0.640625 -4.984375 L 3.8125 -4.984375 C 3.9375 -4.984375 4.039062 -4.945312 4.125 -4.875 C 4.207031 -4.800781 4.25 -4.703125 4.25 -4.578125 C 4.25 -4.453125 4.207031 -4.351562 4.125 -4.28125 C 4.039062 -4.207031 3.9375 -4.171875 3.8125 -4.171875 Z M 0.640625 -4.171875 "/></g></g></g><g fill="#100f0f" fill-opacity="1"><g transform="translate(161.256342, 112.940447)"><g><path d="M 1.421875 -0.4375 C 1.421875 -0.3125 1.375 -0.207031 1.28125 -0.125 C 1.195312 -0.0390625 1.09375 0 0.96875 0 C 0.84375 0 0.738281 -0.0390625 0.65625 -0.125 C 0.570312 -0.207031 0.53125 -0.3125 0.53125 -0.4375 L 0.53125 -4.546875 C 0.53125 -4.671875 0.570312 -4.773438 0.65625 -4.859375 C 0.75 -4.941406 0.859375 -4.984375 0.984375 -4.984375 C 1.097656 -4.984375 1.195312 -4.941406 1.28125 -4.859375 C 1.375 -4.773438 1.421875 -4.671875 1.421875 -4.546875 Z M 1.421875 -0.4375 "/></g></g></g><g fill="#100f0f" fill-opacity="1"><g transform="translate(163.035966, 112.940447)"><g><path d="M 5.125 -2.5 C 5.125 -2.132812 5.0625 -1.796875 4.9375 -1.484375 C 4.820312 -1.179688 4.65625 -0.910156 4.4375 -0.671875 C 4.226562 -0.441406 3.972656 -0.257812 3.671875 -0.125 C 3.378906 0.0078125 3.054688 0.078125 2.703125 0.078125 C 2.347656 0.078125 2.023438 0.0078125 1.734375 -0.125 C 1.441406 -0.257812 1.1875 -0.441406 0.96875 -0.671875 C 0.75 -0.910156 0.578125 -1.179688 0.453125 -1.484375 C 0.335938 -1.796875 0.28125 -2.132812 0.28125 -2.5 C 0.28125 -2.851562 0.335938 -3.179688 0.453125 -3.484375 C 0.578125 -3.796875 0.75 -4.066406 0.96875 -4.296875 C 1.1875 -4.535156 1.441406 -4.722656 1.734375 -4.859375 C 2.023438 -4.992188 2.347656 -5.0625 2.703125 -5.0625 C 3.054688 -5.0625 3.378906 -4.992188 3.671875 -4.859375 C 3.972656 -4.722656 4.226562 -4.535156 4.4375 -4.296875 C 4.65625 -4.066406 4.820312 -3.796875 4.9375 -3.484375 C 5.0625 -3.179688 5.125 -2.851562 5.125 -2.5 Z M 4.203125 -2.5 C 4.203125 -2.8125 4.132812 -3.097656 4 -3.359375 C 3.875 -3.617188 3.695312 -3.820312 3.46875 -3.96875 C 3.25 -4.125 2.992188 -4.203125 2.703125 -4.203125 C 2.410156 -4.203125 2.148438 -4.125 1.921875 -3.96875 C 1.703125 -3.820312 1.53125 -3.617188 1.40625 -3.359375 C 1.28125 -3.109375 1.21875 -2.820312 1.21875 -2.5 C 1.21875 -2.175781 1.28125 -1.882812 1.40625 -1.625 C 1.53125 -1.363281 1.703125 -1.15625 1.921875 -1 C 2.148438 -0.851562 2.410156 -0.78125 2.703125 -0.78125 C 2.992188 -0.78125 3.25 -0.851562 3.46875 -1 C 3.695312 -1.15625 3.875 -1.363281 4 -1.625 C 4.132812 -1.882812 4.203125 -2.175781 4.203125 -2.5 Z M 4.203125 -2.5 "/></g></g></g><g fill="#100f0f" fill-opacity="1"><g transform="translate(168.260944, 112.940447)"><g><path d="M 4.3125 -4.984375 C 4.425781 -4.984375 4.519531 -4.945312 4.59375 -4.875 C 4.664062 -4.800781 4.703125 -4.707031 4.703125 -4.59375 L 4.703125 -0.4375 C 4.703125 -0.3125 4.660156 -0.207031 4.578125 -0.125 C 4.492188 -0.0390625 4.390625 0 4.265625 0 C 4.203125 0 4.140625 -0.0078125 4.078125 -0.03125 C 4.015625 -0.0507812 3.96875 -0.0820312 3.9375 -0.125 L 1.140625 -3.671875 L 1.3125 -3.796875 L 1.3125 -0.40625 C 1.3125 -0.289062 1.273438 -0.191406 1.203125 -0.109375 C 1.128906 -0.0351562 1.035156 0 0.921875 0 C 0.804688 0 0.710938 -0.0351562 0.640625 -0.109375 C 0.566406 -0.191406 0.53125 -0.289062 0.53125 -0.40625 L 0.53125 -4.546875 C 0.53125 -4.671875 0.570312 -4.773438 0.65625 -4.859375 C 0.738281 -4.941406 0.84375 -4.984375 0.96875 -4.984375 C 1.03125 -4.984375 1.097656 -4.96875 1.171875 -4.9375 C 1.242188 -4.914062 1.296875 -4.878906 1.328125 -4.828125 L 4.046875 -1.375 L 3.921875 -1.28125 L 3.921875 -4.59375 C 3.921875 -4.707031 3.957031 -4.800781 4.03125 -4.875 C 4.101562 -4.945312 4.195312 -4.984375 4.3125 -4.984375 Z M 4.3125 -4.984375 "/></g></g></g><g fill="#100f0f" fill-opacity="1"><g transform="translate(143.329668, 258.034449)"><g><path d="M 2.671875 -4.984375 C 3.015625 -4.984375 3.316406 -4.921875 3.578125 -4.796875 C 3.847656 -4.671875 4.070312 -4.488281 4.25 -4.25 C 4.4375 -4.019531 4.578125 -3.753906 4.671875 -3.453125 C 4.765625 -3.148438 4.8125 -2.832031 4.8125 -2.5 C 4.8125 -2.03125 4.726562 -1.609375 4.5625 -1.234375 C 4.394531 -0.859375 4.148438 -0.554688 3.828125 -0.328125 C 3.515625 -0.109375 3.128906 0 2.671875 0 L 0.96875 0 C 0.84375 0 0.738281 -0.0390625 0.65625 -0.125 C 0.570312 -0.207031 0.53125 -0.3125 0.53125 -0.4375 L 0.53125 -4.546875 C 0.53125 -4.671875 0.570312 -4.773438 0.65625 -4.859375 C 0.738281 -4.941406 0.84375 -4.984375 0.96875 -4.984375 Z M 2.59375 -0.8125 C 2.894531 -0.8125 3.140625 -0.890625 3.328125 -1.046875 C 3.523438 -1.203125 3.664062 -1.40625 3.75 -1.65625 C 3.84375 -1.914062 3.890625 -2.195312 3.890625 -2.5 C 3.890625 -2.71875 3.863281 -2.925781 3.8125 -3.125 C 3.757812 -3.332031 3.679688 -3.507812 3.578125 -3.65625 C 3.472656 -3.8125 3.335938 -3.9375 3.171875 -4.03125 C 3.015625 -4.125 2.820312 -4.171875 2.59375 -4.171875 L 1.359375 -4.171875 L 1.421875 -4.234375 L 1.421875 -0.734375 L 1.375 -0.8125 Z M 2.59375 -0.8125 "/></g></g></g><g fill="#100f0f" fill-opacity="1"><g transform="translate(148.241435, 258.034449)"><g><path d="M 0.96875 -4.984375 L 3.359375 -4.984375 C 3.484375 -4.984375 3.585938 -4.941406 3.671875 -4.859375 C 3.753906 -4.785156 3.796875 -4.6875 3.796875 -4.5625 C 3.796875 -4.445312 3.753906 -4.351562 3.671875 -4.28125 C 3.585938 -4.207031 3.484375 -4.171875 3.359375 -4.171875 L 1.359375 -4.171875 L 1.421875 -4.296875 L 1.421875 -2.90625 L 1.375 -2.953125 L 3.03125 -2.953125 C 3.15625 -2.953125 3.257812 -2.910156 3.34375 -2.828125 C 3.425781 -2.753906 3.46875 -2.65625 3.46875 -2.53125 C 3.46875 -2.414062 3.425781 -2.320312 3.34375 -2.25 C 3.257812 -2.175781 3.15625 -2.140625 3.03125 -2.140625 L 1.390625 -2.140625 L 1.421875 -2.1875 L 1.421875 -0.75 L 1.375 -0.8125 L 3.359375 -0.8125 C 3.484375 -0.8125 3.585938 -0.769531 3.671875 -0.6875 C 3.753906 -0.601562 3.796875 -0.507812 3.796875 -0.40625 C 3.796875 -0.289062 3.753906 -0.191406 3.671875 -0.109375 C 3.585938 -0.0351562 3.484375 0 3.359375 0 L 0.96875 0 C 0.84375 0 0.738281 -0.0390625 0.65625 -0.125 C 0.570312 -0.207031 0.53125 -0.3125 0.53125 -0.4375 L 0.53125 -4.546875 C 0.53125 -4.671875 0.570312 -4.773438 0.65625 -4.859375 C 0.738281 -4.941406 0.84375 -4.984375 0.96875 -4.984375 Z M 0.96875 -4.984375 "/></g></g></g><g fill="#100f0f" fill-opacity="1"><g transform="translate(152.135253, 258.034449)"><g><path d="M 2.59375 -4.984375 C 2.84375 -4.984375 3.070312 -4.910156 3.28125 -4.765625 C 3.5 -4.628906 3.675781 -4.4375 3.8125 -4.1875 C 3.945312 -3.945312 4.015625 -3.679688 4.015625 -3.390625 C 4.015625 -3.085938 3.945312 -2.816406 3.8125 -2.578125 C 3.675781 -2.335938 3.5 -2.144531 3.28125 -2 C 3.070312 -1.851562 2.84375 -1.78125 2.59375 -1.78125 L 1.28125 -1.78125 L 1.359375 -1.90625 L 1.359375 -0.4375 C 1.359375 -0.3125 1.316406 -0.207031 1.234375 -0.125 C 1.160156 -0.0390625 1.0625 0 0.9375 0 C 0.820312 0 0.722656 -0.0390625 0.640625 -0.125 C 0.566406 -0.207031 0.53125 -0.3125 0.53125 -0.4375 L 0.53125 -4.546875 C 0.53125 -4.671875 0.570312 -4.773438 0.65625 -4.859375 C 0.738281 -4.941406 0.84375 -4.984375 0.96875 -4.984375 Z M 2.59375 -2.59375 C 2.6875 -2.59375 2.773438 -2.628906 2.859375 -2.703125 C 2.941406 -2.785156 3.007812 -2.882812 3.0625 -3 C 3.125 -3.125 3.15625 -3.253906 3.15625 -3.390625 C 3.15625 -3.523438 3.125 -3.648438 3.0625 -3.765625 C 3.007812 -3.890625 2.941406 -3.988281 2.859375 -4.0625 C 2.773438 -4.132812 2.6875 -4.171875 2.59375 -4.171875 L 1.265625 -4.171875 L 1.359375 -4.296875 L 1.359375 -2.484375 L 1.28125 -2.59375 Z M 2.59375 -2.59375 "/></g></g></g><g fill="#100f0f" fill-opacity="1"><g transform="translate(156.249748, 258.034449)"><g><path d="M 3.28125 -0.828125 C 3.40625 -0.828125 3.507812 -0.785156 3.59375 -0.703125 C 3.675781 -0.628906 3.71875 -0.53125 3.71875 -0.40625 C 3.71875 -0.289062 3.675781 -0.191406 3.59375 -0.109375 C 3.507812 -0.0351562 3.40625 0 3.28125 0 L 0.96875 0 C 0.84375 0 0.738281 -0.0390625 0.65625 -0.125 C 0.570312 -0.207031 0.53125 -0.3125 0.53125 -0.4375 L 0.53125 -4.546875 C 0.53125 -4.671875 0.570312 -4.773438 0.65625 -4.859375 C 0.75 -4.941406 0.859375 -4.984375 0.984375 -4.984375 C 1.097656 -4.984375 1.195312 -4.941406 1.28125 -4.859375 C 1.375 -4.773438 1.421875 -4.671875 1.421875 -4.546875 L 1.421875 -0.71875 L 1.265625 -0.828125 Z M 3.28125 -0.828125 "/></g></g></g><g fill="#100f0f" fill-opacity="1"><g transform="translate(160.072385, 258.034449)"><g><path d="M 5.125 -2.5 C 5.125 -2.132812 5.0625 -1.796875 4.9375 -1.484375 C 4.820312 -1.179688 4.65625 -0.910156 4.4375 -0.671875 C 4.226562 -0.441406 3.972656 -0.257812 3.671875 -0.125 C 3.378906 0.0078125 3.054688 0.078125 2.703125 0.078125 C 2.347656 0.078125 2.023438 0.0078125 1.734375 -0.125 C 1.441406 -0.257812 1.1875 -0.441406 0.96875 -0.671875 C 0.75 -0.910156 0.578125 -1.179688 0.453125 -1.484375 C 0.335938 -1.796875 0.28125 -2.132812 0.28125 -2.5 C 0.28125 -2.851562 0.335938 -3.179688 0.453125 -3.484375 C 0.578125 -3.796875 0.75 -4.066406 0.96875 -4.296875 C 1.1875 -4.535156 1.441406 -4.722656 1.734375 -4.859375 C 2.023438 -4.992188 2.347656 -5.0625 2.703125 -5.0625 C 3.054688 -5.0625 3.378906 -4.992188 3.671875 -4.859375 C 3.972656 -4.722656 4.226562 -4.535156 4.4375 -4.296875 C 4.65625 -4.066406 4.820312 -3.796875 4.9375 -3.484375 C 5.0625 -3.179688 5.125 -2.851562 5.125 -2.5 Z M 4.203125 -2.5 C 4.203125 -2.8125 4.132812 -3.097656 4 -3.359375 C 3.875 -3.617188 3.695312 -3.820312 3.46875 -3.96875 C 3.25 -4.125 2.992188 -4.203125 2.703125 -4.203125 C 2.410156 -4.203125 2.148438 -4.125 1.921875 -3.96875 C 1.703125 -3.820312 1.53125 -3.617188 1.40625 -3.359375 C 1.28125 -3.109375 1.21875 -2.820312 1.21875 -2.5 C 1.21875 -2.175781 1.28125 -1.882812 1.40625 -1.625 C 1.53125 -1.363281 1.703125 -1.15625 1.921875 -1 C 2.148438 -0.851562 2.410156 -0.78125 2.703125 -0.78125 C 2.992188 -0.78125 3.25 -0.851562 3.46875 -1 C 3.695312 -1.15625 3.875 -1.363281 4 -1.625 C 4.132812 -1.882812 4.203125 -2.175781 4.203125 -2.5 Z M 4.203125 -2.5 "/></g></g></g><g fill="#100f0f" fill-opacity="1"><g transform="translate(165.297364, 258.034449)"><g><path d="M 3.71875 -5.015625 C 3.820312 -5.015625 3.914062 -4.972656 4 -4.890625 C 4.09375 -4.804688 4.140625 -4.695312 4.140625 -4.5625 C 4.140625 -4.519531 4.132812 -4.476562 4.125 -4.4375 C 4.113281 -4.394531 4.09375 -4.347656 4.0625 -4.296875 L 2.4375 -1.984375 L 2.578125 -2.484375 L 2.578125 -0.4375 C 2.578125 -0.3125 2.535156 -0.207031 2.453125 -0.125 C 2.367188 -0.0390625 2.269531 0 2.15625 0 C 2.039062 0 1.941406 -0.0390625 1.859375 -0.125 C 1.773438 -0.207031 1.734375 -0.3125 1.734375 -0.4375 L 1.734375 -2.421875 L 1.78125 -2.1875 L 0.25 -4.234375 C 0.195312 -4.296875 0.160156 -4.351562 0.140625 -4.40625 C 0.128906 -4.46875 0.125 -4.523438 0.125 -4.578125 C 0.125 -4.703125 0.171875 -4.804688 0.265625 -4.890625 C 0.367188 -4.972656 0.472656 -5.015625 0.578125 -5.015625 C 0.710938 -5.015625 0.828125 -4.945312 0.921875 -4.8125 L 2.296875 -2.921875 L 2.09375 -2.953125 L 3.359375 -4.796875 C 3.453125 -4.941406 3.570312 -5.015625 3.71875 -5.015625 Z M 3.71875 -5.015625 "/></g></g></g><g fill="#100f0f" fill-opacity="1"><g transform="translate(169.362031, 258.034449)"><g><path d="M 0.984375 -5 C 1.046875 -5 1.113281 -4.976562 1.1875 -4.9375 C 1.257812 -4.90625 1.316406 -4.859375 1.359375 -4.796875 L 3.09375 -2.140625 L 2.734375 -2.15625 L 4.515625 -4.796875 C 4.597656 -4.929688 4.710938 -5 4.859375 -5 C 4.972656 -5 5.070312 -4.957031 5.15625 -4.875 C 5.25 -4.789062 5.296875 -4.6875 5.296875 -4.5625 L 5.296875 -0.4375 C 5.296875 -0.3125 5.253906 -0.207031 5.171875 -0.125 C 5.097656 -0.0390625 4.992188 0 4.859375 0 C 4.722656 0 4.613281 -0.0390625 4.53125 -0.125 C 4.445312 -0.207031 4.40625 -0.3125 4.40625 -0.4375 L 4.40625 -3.796875 L 4.6875 -3.71875 L 3.234375 -1.515625 C 3.191406 -1.460938 3.140625 -1.414062 3.078125 -1.375 C 3.015625 -1.332031 2.945312 -1.316406 2.875 -1.328125 C 2.8125 -1.316406 2.75 -1.332031 2.6875 -1.375 C 2.625 -1.414062 2.570312 -1.460938 2.53125 -1.515625 L 1.171875 -3.65625 L 1.359375 -4.046875 L 1.359375 -0.4375 C 1.359375 -0.3125 1.316406 -0.207031 1.234375 -0.125 C 1.160156 -0.0390625 1.0625 0 0.9375 0 C 0.820312 0 0.722656 -0.0390625 0.640625 -0.125 C 0.566406 -0.207031 0.53125 -0.3125 0.53125 -0.4375 L 0.53125 -4.5625 C 0.53125 -4.675781 0.570312 -4.773438 0.65625 -4.859375 C 0.75 -4.953125 0.859375 -5 0.984375 -5 Z M 0.984375 -5 "/></g></g></g><g fill="#100f0f" fill-opacity="1"><g transform="translate(175.014119, 258.034449)"><g><path d="M 0.96875 -4.984375 L 3.359375 -4.984375 C 3.484375 -4.984375 3.585938 -4.941406 3.671875 -4.859375 C 3.753906 -4.785156 3.796875 -4.6875 3.796875 -4.5625 C 3.796875 -4.445312 3.753906 -4.351562 3.671875 -4.28125 C 3.585938 -4.207031 3.484375 -4.171875 3.359375 -4.171875 L 1.359375 -4.171875 L 1.421875 -4.296875 L 1.421875 -2.90625 L 1.375 -2.953125 L 3.03125 -2.953125 C 3.15625 -2.953125 3.257812 -2.910156 3.34375 -2.828125 C 3.425781 -2.753906 3.46875 -2.65625 3.46875 -2.53125 C 3.46875 -2.414062 3.425781 -2.320312 3.34375 -2.25 C 3.257812 -2.175781 3.15625 -2.140625 3.03125 -2.140625 L 1.390625 -2.140625 L 1.421875 -2.1875 L 1.421875 -0.75 L 1.375 -0.8125 L 3.359375 -0.8125 C 3.484375 -0.8125 3.585938 -0.769531 3.671875 -0.6875 C 3.753906 -0.601562 3.796875 -0.507812 3.796875 -0.40625 C 3.796875 -0.289062 3.753906 -0.191406 3.671875 -0.109375 C 3.585938 -0.0351562 3.484375 0 3.359375 0 L 0.96875 0 C 0.84375 0 0.738281 -0.0390625 0.65625 -0.125 C 0.570312 -0.207031 0.53125 -0.3125 0.53125 -0.4375 L 0.53125 -4.546875 C 0.53125 -4.671875 0.570312 -4.773438 0.65625 -4.859375 C 0.738281 -4.941406 0.84375 -4.984375 0.96875 -4.984375 Z M 0.96875 -4.984375 "/></g></g></g><g fill="#100f0f" fill-opacity="1"><g transform="translate(178.907937, 258.034449)"><g><path d="M 4.3125 -4.984375 C 4.425781 -4.984375 4.519531 -4.945312 4.59375 -4.875 C 4.664062 -4.800781 4.703125 -4.707031 4.703125 -4.59375 L 4.703125 -0.4375 C 4.703125 -0.3125 4.660156 -0.207031 4.578125 -0.125 C 4.492188 -0.0390625 4.390625 0 4.265625 0 C 4.203125 0 4.140625 -0.0078125 4.078125 -0.03125 C 4.015625 -0.0507812 3.96875 -0.0820312 3.9375 -0.125 L 1.140625 -3.671875 L 1.3125 -3.796875 L 1.3125 -0.40625 C 1.3125 -0.289062 1.273438 -0.191406 1.203125 -0.109375 C 1.128906 -0.0351562 1.035156 0 0.921875 0 C 0.804688 0 0.710938 -0.0351562 0.640625 -0.109375 C 0.566406 -0.191406 0.53125 -0.289062 0.53125 -0.40625 L 0.53125 -4.546875 C 0.53125 -4.671875 0.570312 -4.773438 0.65625 -4.859375 C 0.738281 -4.941406 0.84375 -4.984375 0.96875 -4.984375 C 1.03125 -4.984375 1.097656 -4.96875 1.171875 -4.9375 C 1.242188 -4.914062 1.296875 -4.878906 1.328125 -4.828125 L 4.046875 -1.375 L 3.921875 -1.28125 L 3.921875 -4.59375 C 3.921875 -4.707031 3.957031 -4.800781 4.03125 -4.875 C 4.101562 -4.945312 4.195312 -4.984375 4.3125 -4.984375 Z M 4.3125 -4.984375 "/></g></g></g><g fill="#100f0f" fill-opacity="1"><g transform="translate(183.962077, 258.034449)"><g><path d="M 2.21875 0 C 2.09375 0 1.984375 -0.0390625 1.890625 -0.125 C 1.804688 -0.207031 1.765625 -0.3125 1.765625 -0.4375 L 1.765625 -4.5625 L 2.6875 -4.5625 L 2.6875 -0.4375 C 2.6875 -0.3125 2.640625 -0.207031 2.546875 -0.125 C 2.460938 -0.0390625 2.351562 0 2.21875 0 Z M 0.640625 -4.171875 C 0.523438 -4.171875 0.425781 -4.207031 0.34375 -4.28125 C 0.257812 -4.351562 0.21875 -4.453125 0.21875 -4.578125 C 0.21875 -4.703125 0.257812 -4.800781 0.34375 -4.875 C 0.425781 -4.945312 0.523438 -4.984375 0.640625 -4.984375 L 3.8125 -4.984375 C 3.9375 -4.984375 4.039062 -4.945312 4.125 -4.875 C 4.207031 -4.800781 4.25 -4.703125 4.25 -4.578125 C 4.25 -4.453125 4.207031 -4.351562 4.125 -4.28125 C 4.039062 -4.207031 3.9375 -4.171875 3.8125 -4.171875 Z M 0.640625 -4.171875 "/></g></g></g></svg>