<svg xmlns="http://www.w3.org/2000/svg" xmlns:xlink="http://www.w3.org/1999/xlink" width="500" zoomAndPan="magnify" viewBox="0 0 375 374.999991" height="500" preserveAspectRatio="xMidYMid meet" version="1.0"><defs><g/><clipPath id="0da8054909"><path d="M 92.167969 230.160156 L 187.5 230.160156 L 187.5 235.691406 L 92.167969 235.691406 Z M 92.167969 230.160156 " clip-rule="nonzero"/></clipPath></defs><g fill="#2e2e2e" fill-opacity="1"><g transform="translate(52.604287, 221.999985)"><g><path d="M 7.453125 0 L 24.734375 0 C 28.765625 0 32.539062 -0.703125 36.046875 -2.191406 C 39.554688 -3.683594 42.535156 -5.875 45.082031 -8.769531 C 47.359375 -11.402344 49.203125 -14.382812 50.429688 -17.804688 C 51.660156 -21.226562 52.359375 -24.820312 52.359375 -28.679688 C 52.359375 -32.363281 51.660156 -35.960938 50.429688 -39.378906 C 49.203125 -42.710938 47.359375 -45.78125 45.082031 -48.414062 C 42.535156 -51.21875 39.554688 -53.324219 36.046875 -54.816406 C 32.539062 -56.304688 28.765625 -57.097656 24.734375 -57.097656 L 7.453125 -57.097656 Z M 14.734375 -7.28125 L 14.734375 -49.730469 L 24.734375 -49.730469 C 27.714844 -49.730469 30.519531 -49.203125 33.066406 -48.148438 C 35.609375 -47.097656 37.800781 -45.519531 39.554688 -43.5 C 41.308594 -41.484375 42.710938 -39.203125 43.675781 -36.660156 C 44.554688 -34.117188 45.082031 -31.484375 45.082031 -28.679688 C 45.082031 -24.910156 44.203125 -21.398438 42.625 -18.15625 C 41.046875 -14.910156 38.765625 -12.277344 35.785156 -10.347656 C 32.625 -8.246094 28.941406 -7.28125 24.734375 -7.28125 Z M 14.734375 -7.28125 "/></g></g></g><g fill="#2e2e2e" fill-opacity="1"><g transform="translate(101.892894, 221.999985)"><g><path d="M 7.453125 -57.097656 L 7.453125 0 L 43.941406 0 L 43.941406 -7.28125 L 14.734375 -7.28125 L 14.734375 -24.910156 L 37.097656 -24.910156 L 37.097656 -32.277344 L 14.734375 -32.277344 L 14.734375 -49.730469 L 43.941406 -49.730469 L 43.941406 -57.097656 Z M 7.453125 -57.097656 "/></g></g></g><g fill="#2e2e2e" fill-opacity="1"><g transform="translate(145.656214, 221.999985)"><g><path d="M 47.976562 -15.699219 C 47.976562 -18.417969 47.097656 -21.050781 45.519531 -23.503906 C 43.851562 -25.960938 41.660156 -27.890625 39.027344 -29.207031 C 37.539062 -29.90625 35.960938 -30.519531 34.203125 -30.960938 C 32.449219 -31.3125 30.171875 -31.75 27.453125 -32.101562 C 26.398438 -32.1875 24.996094 -32.449219 23.152344 -32.800781 C 21.226562 -33.152344 19.820312 -33.503906 18.855469 -34.03125 C 17.277344 -34.730469 15.960938 -35.695312 14.910156 -37.097656 C 13.855469 -38.503906 13.332031 -39.90625 13.332031 -41.308594 C 13.332031 -42.886719 13.945312 -44.464844 15.171875 -45.871094 C 16.402344 -47.183594 18.066406 -48.238281 20.171875 -49.113281 C 22.277344 -49.902344 24.558594 -50.34375 27.011719 -50.34375 C 29.292969 -50.34375 31.574219 -49.902344 33.765625 -49.113281 C 35.871094 -48.238281 37.539062 -47.183594 38.765625 -45.78125 C 39.992188 -44.378906 40.605469 -42.886719 40.605469 -41.308594 L 47.449219 -45.167969 C 46.308594 -48.324219 44.292969 -50.957031 41.398438 -53.238281 C 39.378906 -54.640625 37.1875 -55.78125 34.730469 -56.570312 C 32.277344 -57.269531 29.644531 -57.710938 27.011719 -57.710938 C 21.398438 -57.710938 16.578125 -56.21875 12.453125 -53.238281 C 10.347656 -51.660156 8.769531 -49.902344 7.628906 -47.800781 C 6.488281 -45.695312 5.964844 -43.589844 5.964844 -41.308594 C 5.964844 -38.414062 6.753906 -35.695312 8.507812 -33.238281 C 10.261719 -30.785156 12.628906 -28.855469 15.613281 -27.453125 C 17.890625 -26.222656 21.574219 -25.347656 26.488281 -24.910156 C 30.871094 -24.382812 33.855469 -23.679688 35.519531 -22.804688 C 37.097656 -21.925781 38.414062 -20.785156 39.292969 -19.558594 C 40.167969 -18.332031 40.605469 -17.015625 40.605469 -15.699219 C 40.605469 -14.03125 39.992188 -12.542969 38.765625 -11.226562 C 37.539062 -9.824219 35.871094 -8.683594 33.765625 -7.804688 C 31.660156 -6.929688 29.382812 -6.578125 27.011719 -6.578125 C 24.558594 -6.578125 22.363281 -7.015625 20.261719 -7.894531 C 18.15625 -8.683594 16.402344 -9.824219 15.171875 -11.226562 C 13.945312 -12.628906 13.332031 -14.121094 13.332031 -15.699219 L 6.488281 -11.839844 C 7.542969 -8.332031 9.910156 -5.351562 13.507812 -2.894531 C 17.101562 -0.4375 21.574219 0.703125 27.011719 0.703125 C 29.644531 0.703125 32.277344 0.351562 34.730469 -0.4375 C 37.1875 -1.140625 39.46875 -2.28125 41.398438 -3.769531 C 43.5 -5.261719 45.082031 -7.015625 46.21875 -9.121094 C 47.359375 -11.226562 47.976562 -13.417969 47.976562 -15.699219 Z M 47.976562 -15.699219 "/></g></g></g><g fill="#2e2e2e" fill-opacity="1"><g transform="translate(192.401434, 221.999985)"><g><path d="M 8.507812 -57.097656 L 8.507812 0 L 15.875 0 L 15.875 -57.097656 Z M 8.507812 -57.097656 "/></g></g></g><g fill="#2e2e2e" fill-opacity="1"><g transform="translate(209.152219, 221.999985)"><g><path d="M 53.9375 0 L 53.9375 -30.171875 L 30.871094 -30.171875 L 30.871094 -22.890625 L 46.570312 -22.890625 L 46.570312 -7.28125 L 32.800781 -7.28125 C 28.941406 -7.28125 25.347656 -8.246094 22.101562 -10.171875 C 18.769531 -12.101562 16.226562 -14.734375 14.382812 -18.066406 C 12.453125 -21.3125 11.488281 -24.910156 11.488281 -28.855469 C 11.488281 -32.714844 12.367188 -36.222656 14.296875 -39.554688 C 16.226562 -42.886719 18.769531 -45.519531 22.101562 -47.449219 C 25.257812 -49.378906 28.855469 -50.34375 32.800781 -50.34375 C 35.785156 -50.34375 38.679688 -49.730469 41.484375 -48.5 C 44.203125 -47.273438 46.570312 -45.605469 48.5 -43.414062 L 53.9375 -48.324219 C 51.21875 -51.308594 47.976562 -53.585938 44.292969 -55.253906 C 40.605469 -56.832031 36.75 -57.710938 32.800781 -57.710938 C 27.628906 -57.710938 22.890625 -56.394531 18.503906 -53.851562 C 14.121094 -51.308594 10.699219 -47.800781 8.070312 -43.414062 C 5.4375 -38.851562 4.210938 -34.03125 4.210938 -28.855469 C 4.210938 -23.59375 5.4375 -18.855469 7.980469 -14.472656 C 10.523438 -10.085938 14.03125 -6.578125 18.503906 -3.945312 C 22.890625 -1.316406 27.628906 0 32.800781 0 Z M 53.9375 0 "/></g></g></g><g fill="#2e2e2e" fill-opacity="1"><g transform="translate(263.001382, 221.999985)"><g><path d="M 14.910156 0 L 14.910156 -38.851562 L 51.921875 1.402344 L 51.921875 -57.097656 L 44.640625 -57.097656 L 44.640625 -17.890625 L 7.542969 -57.972656 L 7.542969 0 Z M 14.910156 0 "/></g></g></g><g clip-path="url(#0da8054909)"><path fill="#2e2e2e" d="M 92.167969 230.160156 L 187.492188 230.160156 L 187.492188 235.691406 L 92.167969 235.691406 Z M 92.167969 230.160156 " fill-opacity="1" fill-rule="nonzero"/></g><g fill="#2e2e2e" fill-opacity="1"><g transform="translate(204.560174, 235.730448)"><g><path d="M 0.675781 0 L 1.953125 0 L 1.953125 -1.753906 L 2.796875 -1.753906 L 3.804688 0 L 5.285156 0 L 4.117188 -1.953125 C 4.792969 -2.25 5.1875 -2.863281 5.1875 -3.691406 C 5.1875 -4.890625 4.367188 -5.628906 3.078125 -5.628906 L 0.675781 -5.628906 Z M 1.9375 -2.832031 L 1.9375 -4.535156 L 2.910156 -4.535156 C 3.539062 -4.535156 3.890625 -4.230469 3.890625 -3.683594 C 3.890625 -3.136719 3.539062 -2.832031 2.910156 -2.832031 Z M 1.9375 -2.832031 "/></g></g></g><g fill="#2e2e2e" fill-opacity="1"><g transform="translate(212.175777, 235.730448)"><g><path d="M 0.675781 0 L 4.464844 0 L 4.464844 -1.085938 L 1.945312 -1.085938 L 1.945312 -2.316406 L 4.15625 -2.316406 L 4.15625 -3.386719 L 1.945312 -3.386719 L 1.945312 -4.550781 L 4.375 -4.550781 L 4.375 -5.628906 L 0.675781 -5.628906 Z M 0.675781 0 "/></g></g></g><g fill="#2e2e2e" fill-opacity="1"><g transform="translate(219.003279, 235.730448)"><g><path d="M 2.636719 0.113281 C 3.972656 0.113281 4.792969 -0.523438 4.792969 -1.585938 C 4.792969 -2.476562 4.207031 -3.007812 2.804688 -3.335938 C 1.945312 -3.539062 1.648438 -3.753906 1.648438 -4.101562 C 1.648438 -4.472656 1.976562 -4.695312 2.515625 -4.695312 C 3.105469 -4.695312 3.457031 -4.390625 3.457031 -3.882812 L 4.6875 -3.882812 C 4.6875 -5.019531 3.835938 -5.742188 2.5 -5.742188 C 1.207031 -5.742188 0.402344 -5.105469 0.402344 -4.078125 C 0.402344 -3.160156 1.019531 -2.613281 2.339844 -2.332031 C 3.136719 -2.164062 3.5 -1.929688 3.5 -1.535156 C 3.5 -1.15625 3.160156 -0.941406 2.628906 -0.941406 C 2.011719 -0.941406 1.609375 -1.253906 1.609375 -1.792969 L 0.355469 -1.792969 C 0.355469 -0.628906 1.222656 0.113281 2.636719 0.113281 Z M 2.636719 0.113281 "/></g></g></g><g fill="#2e2e2e" fill-opacity="1"><g transform="translate(226.112242, 235.730448)"><g><path d="M 0.675781 0 L 1.953125 0 L 1.953125 -1.566406 L 2.878906 -1.566406 C 4.238281 -1.566406 5.113281 -2.363281 5.113281 -3.59375 C 5.113281 -4.832031 4.238281 -5.628906 2.878906 -5.628906 L 0.675781 -5.628906 Z M 1.945312 -2.667969 L 1.945312 -4.511719 L 2.773438 -4.511719 C 3.441406 -4.511719 3.8125 -4.171875 3.8125 -3.585938 C 3.8125 -3 3.441406 -2.667969 2.773438 -2.667969 Z M 1.945312 -2.667969 "/></g></g></g><g fill="#2e2e2e" fill-opacity="1"><g transform="translate(233.414215, 235.730448)"><g><path d="M 3.34375 0.113281 C 5.105469 0.113281 6.351562 -1.09375 6.351562 -2.816406 C 6.351562 -4.535156 5.105469 -5.742188 3.34375 -5.742188 C 1.585938 -5.742188 0.347656 -4.535156 0.347656 -2.816406 C 0.347656 -1.09375 1.585938 0.113281 3.34375 0.113281 Z M 1.648438 -2.816406 C 1.648438 -3.828125 2.347656 -4.527344 3.34375 -4.527344 C 4.351562 -4.527344 5.042969 -3.828125 5.042969 -2.816406 C 5.042969 -1.800781 4.351562 -1.101562 3.34375 -1.101562 C 2.347656 -1.101562 1.648438 -1.800781 1.648438 -2.816406 Z M 1.648438 -2.816406 "/></g></g></g><g fill="#2e2e2e" fill-opacity="1"><g transform="translate(242.06721, 235.730448)"><g><path d="M 0.675781 0 L 1.945312 0 L 1.945312 -3.449219 L 4.429688 0 L 5.515625 0 L 5.515625 -5.628906 L 4.246094 -5.628906 L 4.246094 -2.203125 L 1.761719 -5.628906 L 0.675781 -5.628906 Z M 0.675781 0 "/></g></g></g><g fill="#2e2e2e" fill-opacity="1"><g transform="translate(250.213575, 235.730448)"><g><path d="M 2.636719 0.113281 C 3.972656 0.113281 4.792969 -0.523438 4.792969 -1.585938 C 4.792969 -2.476562 4.207031 -3.007812 2.804688 -3.335938 C 1.945312 -3.539062 1.648438 -3.753906 1.648438 -4.101562 C 1.648438 -4.472656 1.976562 -4.695312 2.515625 -4.695312 C 3.105469 -4.695312 3.457031 -4.390625 3.457031 -3.882812 L 4.6875 -3.882812 C 4.6875 -5.019531 3.835938 -5.742188 2.5 -5.742188 C 1.207031 -5.742188 0.402344 -5.105469 0.402344 -4.078125 C 0.402344 -3.160156 1.019531 -2.613281 2.339844 -2.332031 C 3.136719 -2.164062 3.5 -1.929688 3.5 -1.535156 C 3.5 -1.15625 3.160156 -0.941406 2.628906 -0.941406 C 2.011719 -0.941406 1.609375 -1.253906 1.609375 -1.792969 L 0.355469 -1.792969 C 0.355469 -0.628906 1.222656 0.113281 2.636719 0.113281 Z M 2.636719 0.113281 "/></g></g></g><g fill="#2e2e2e" fill-opacity="1"><g transform="translate(257.322538, 235.730448)"><g><path d="M 0.675781 0 L 1.953125 0 L 1.953125 -5.628906 L 0.675781 -5.628906 Z M 0.675781 0 "/></g></g></g><g fill="#2e2e2e" fill-opacity="1"><g transform="translate(261.906369, 235.730448)"><g><path d="M 2.234375 0 L 3.488281 0 L 5.652344 -5.628906 L 4.285156 -5.628906 L 2.871094 -1.839844 L 2.195312 -3.625 L 1.449219 -5.628906 L 0.0742188 -5.628906 Z M 2.234375 0 "/></g></g></g><g fill="#2e2e2e" fill-opacity="1"><g transform="translate(269.586312, 235.730448)"><g><path d="M 0.675781 0 L 4.464844 0 L 4.464844 -1.085938 L 1.945312 -1.085938 L 1.945312 -2.316406 L 4.15625 -2.316406 L 4.15625 -3.386719 L 1.945312 -3.386719 L 1.945312 -4.550781 L 4.375 -4.550781 L 4.375 -5.628906 L 0.675781 -5.628906 Z M 0.675781 0 "/></g></g></g></svg>