<svg xmlns="http://www.w3.org/2000/svg" xmlns:xlink="http://www.w3.org/1999/xlink" width="500" zoomAndPan="magnify" viewBox="0 0 375 374.999991" height="500" preserveAspectRatio="xMidYMid meet" version="1.0"><defs><g/></defs><g fill="#2b2b2b" fill-opacity="1"><g transform="translate(20.542538, 223.611102)"><g><path d="M 3.664062 0 L 19.046875 0 L 19.046875 -33.085938 L 31.132812 -33.085938 L 31.132812 -46.027344 L 19.046875 -46.027344 L 19.046875 -72.519531 L 36.015625 -72.519531 L 36.015625 -85.460938 L 3.664062 -85.460938 Z M 3.664062 0 "/></g></g></g><g fill="#2b2b2b" fill-opacity="1"><g transform="translate(56.313867, 223.611102)"><g><path d="M 3.664062 0 L 19.046875 0 L 19.046875 -20.144531 L 24.171875 -20.144531 L 24.171875 0 L 39.554688 0 L 39.554688 -17.703125 C 39.191406 -21.976562 36.625 -25.394531 32.839844 -27.226562 C 36.625 -28.8125 39.191406 -32.476562 39.554688 -36.75 L 39.554688 -73.253906 C 39.554688 -80.089844 34.183594 -85.460938 27.347656 -85.460938 L 3.664062 -85.460938 Z M 19.046875 -33.085938 L 19.046875 -72.640625 L 21.609375 -72.640625 C 23.074219 -72.640625 24.171875 -71.542969 24.171875 -70.078125 L 24.171875 -35.648438 C 24.171875 -34.183594 23.074219 -33.085938 21.609375 -33.085938 Z M 19.046875 -33.085938 "/></g></g></g><g fill="#2b2b2b" fill-opacity="1"><g transform="translate(96.846558, 223.611102)"><g><path d="M 15.871094 0 L 27.347656 0 C 34.183594 0 39.554688 -5.371094 39.554688 -12.207031 L 39.554688 -73.253906 C 39.554688 -80.089844 34.183594 -85.460938 27.347656 -85.460938 L 15.871094 -85.460938 C 9.035156 -85.460938 3.664062 -80.089844 3.664062 -73.253906 L 3.664062 -12.207031 C 3.664062 -5.371094 9.035156 0 15.871094 0 Z M 21.609375 -12.941406 C 20.144531 -12.941406 19.046875 -14.039062 19.046875 -15.503906 L 19.046875 -70.078125 C 19.046875 -71.542969 20.144531 -72.640625 21.609375 -72.640625 C 23.074219 -72.640625 24.171875 -71.542969 24.171875 -70.078125 L 24.171875 -15.503906 C 24.171875 -14.039062 23.074219 -12.941406 21.609375 -12.941406 Z M 21.609375 -12.941406 "/></g></g></g><g fill="#2b2b2b" fill-opacity="1"><g transform="translate(137.379244, 223.611102)"><g><path d="M 3.664062 0 L 19.046875 0 L 19.046875 -37.847656 L 25.027344 0 L 39.554688 0 L 39.554688 -85.460938 L 24.050781 -85.460938 L 24.050781 -47.613281 L 17.945312 -85.460938 L 3.664062 -85.460938 Z M 3.664062 0 "/></g></g></g><g fill="#2b2b2b" fill-opacity="1"><g transform="translate(177.911935, 223.611102)"><g><path d="M 10.378906 0 L 25.761719 0 L 25.761719 -72.519531 L 34.304688 -72.519531 L 34.304688 -85.460938 L 1.832031 -85.460938 L 1.832031 -72.519531 L 10.378906 -72.519531 Z M 10.378906 0 "/></g></g></g><g fill="#2b2b2b" fill-opacity="1"><g transform="translate(211.363616, 223.611102)"><g/></g></g><g fill="#2b2b2b" fill-opacity="1"><g transform="translate(235.536694, 223.611102)"><g><path d="M 3.664062 0 L 36.015625 0 L 36.015625 -12.941406 L 19.046875 -12.941406 L 19.046875 -33.085938 L 31.132812 -33.085938 L 31.132812 -46.027344 L 19.046875 -46.027344 L 19.046875 -72.519531 L 36.015625 -72.519531 L 36.015625 -85.460938 L 3.664062 -85.460938 Z M 3.664062 0 "/></g></g></g><g fill="#2b2b2b" fill-opacity="1"><g transform="translate(270.697582, 223.611102)"><g><path d="M 3.664062 0 L 19.046875 0 L 19.046875 -37.847656 L 25.027344 0 L 39.554688 0 L 39.554688 -85.460938 L 24.050781 -85.460938 L 24.050781 -47.613281 L 17.945312 -85.460938 L 3.664062 -85.460938 Z M 3.664062 0 "/></g></g></g><g fill="#2b2b2b" fill-opacity="1"><g transform="translate(311.230284, 223.611102)"><g><path d="M 3.664062 0 L 27.347656 0 C 34.183594 0 39.554688 -5.371094 39.554688 -12.207031 L 39.554688 -73.253906 C 39.554688 -80.089844 34.183594 -85.460938 27.347656 -85.460938 L 3.664062 -85.460938 Z M 19.046875 -12.941406 L 19.046875 -72.640625 L 21.609375 -72.640625 C 23.074219 -72.640625 24.171875 -71.542969 24.171875 -70.078125 L 24.171875 -15.503906 C 24.171875 -14.039062 23.074219 -12.941406 21.609375 -12.941406 Z M 19.046875 -12.941406 "/></g></g></g><g fill="#2b2b2b" fill-opacity="1"><g transform="translate(229.876938, 232.772534)"><g><path d="M 0 -7.5 L -2.375 -6.671875 L -2.375 -3.109375 L 0 -2.28125 L 0 -0.34375 L -9.3125 -3.734375 L -9.3125 -6.046875 L 0 -9.421875 Z M -7.890625 -4.890625 L -7.734375 -4.84375 C -7.578125 -4.800781 -7.394531 -4.75 -7.1875 -4.6875 C -6.988281 -4.625 -5.875 -4.242188 -3.84375 -3.546875 L -3.84375 -6.234375 L -6.53125 -5.3125 L -7.421875 -5.03125 Z M -7.890625 -4.890625 "/></g></g></g><g fill="#2b2b2b" fill-opacity="1"><g transform="translate(229.876938, 220.031354)"><g><path d="M 0 -7.3125 L -3.53125 -5.140625 L -3.53125 -2.859375 L 0 -2.859375 L 0 -0.90625 L -9.3125 -0.90625 L -9.3125 -5.5625 C -9.3125 -6.675781 -9.070312 -7.535156 -8.59375 -8.140625 C -8.125 -8.742188 -7.441406 -9.046875 -6.546875 -9.046875 C -5.890625 -9.046875 -5.320312 -8.859375 -4.84375 -8.484375 C -4.375 -8.117188 -4.066406 -7.617188 -3.921875 -6.984375 L 0 -9.5 Z M -6.46875 -7.078125 C -7.363281 -7.078125 -7.8125 -6.503906 -7.8125 -5.359375 L -7.8125 -2.859375 L -5.046875 -2.859375 L -5.046875 -5.40625 C -5.046875 -5.957031 -5.171875 -6.375 -5.421875 -6.65625 C -5.671875 -6.9375 -6.019531 -7.078125 -6.46875 -7.078125 Z M -6.46875 -7.078125 "/></g></g></g><g fill="#2b2b2b" fill-opacity="1"><g transform="translate(229.876938, 207.290174)"><g><path d="M -1.40625 -5.265625 C -1.40625 -6.441406 -1.992188 -7.257812 -3.171875 -7.71875 L -2.53125 -9.40625 C -1.632812 -9.039062 -0.96875 -8.503906 -0.53125 -7.796875 C -0.09375 -7.085938 0.125 -6.242188 0.125 -5.265625 C 0.125 -3.765625 -0.296875 -2.601562 -1.140625 -1.78125 C -1.992188 -0.96875 -3.179688 -0.5625 -4.703125 -0.5625 C -6.234375 -0.5625 -7.40625 -0.953125 -8.21875 -1.734375 C -9.039062 -2.523438 -9.453125 -3.671875 -9.453125 -5.171875 C -9.453125 -6.265625 -9.234375 -7.15625 -8.796875 -7.84375 C -8.359375 -8.53125 -7.710938 -9.015625 -6.859375 -9.296875 L -6.390625 -7.578125 C -6.859375 -7.429688 -7.226562 -7.144531 -7.5 -6.71875 C -7.78125 -6.289062 -7.921875 -5.789062 -7.921875 -5.21875 C -7.921875 -4.332031 -7.644531 -3.660156 -7.09375 -3.203125 C -6.550781 -2.742188 -5.753906 -2.515625 -4.703125 -2.515625 C -3.628906 -2.515625 -2.8125 -2.75 -2.25 -3.21875 C -1.6875 -3.6875 -1.40625 -4.367188 -1.40625 -5.265625 Z M -1.40625 -5.265625 "/></g></g></g><g fill="#2b2b2b" fill-opacity="1"><g transform="translate(229.876938, 194.548995)"><g><path d="M 0 -6.921875 L -4 -6.921875 L -4 -2.859375 L 0 -2.859375 L 0 -0.90625 L -9.3125 -0.90625 L -9.3125 -2.859375 L -5.609375 -2.859375 L -5.609375 -6.921875 L -9.3125 -6.921875 L -9.3125 -8.875 L 0 -8.875 Z M 0 -6.921875 "/></g></g></g><g fill="#2b2b2b" fill-opacity="1"><g transform="translate(229.876938, 181.807814)"><g><path d="M 0 -0.90625 L -9.3125 -0.90625 L -9.3125 -2.859375 L 0 -2.859375 Z M 0 -0.90625 "/></g></g></g><g fill="#2b2b2b" fill-opacity="1"><g transform="translate(229.876938, 175.080788)"><g><path d="M -7.8125 -5.109375 L 0 -5.109375 L 0 -3.15625 L -7.8125 -3.15625 L -7.8125 -0.15625 L -9.3125 -0.15625 L -9.3125 -8.125 L -7.8125 -8.125 Z M -7.8125 -5.109375 "/></g></g></g><g fill="#2b2b2b" fill-opacity="1"><g transform="translate(229.876938, 163.84645)"><g><path d="M 0 -0.90625 L -9.3125 -0.90625 L -9.3125 -8.234375 L -7.8125 -8.234375 L -7.8125 -2.859375 L -5.46875 -2.859375 L -5.46875 -7.828125 L -3.96875 -7.828125 L -3.96875 -2.859375 L -1.515625 -2.859375 L -1.515625 -8.5 L 0 -8.5 Z M 0 -0.90625 "/></g></g></g><g fill="#2b2b2b" fill-opacity="1"><g transform="translate(229.876938, 151.852087)"><g><path d="M -1.40625 -5.265625 C -1.40625 -6.441406 -1.992188 -7.257812 -3.171875 -7.71875 L -2.53125 -9.40625 C -1.632812 -9.039062 -0.96875 -8.503906 -0.53125 -7.796875 C -0.09375 -7.085938 0.125 -6.242188 0.125 -5.265625 C 0.125 -3.765625 -0.296875 -2.601562 -1.140625 -1.78125 C -1.992188 -0.96875 -3.179688 -0.5625 -4.703125 -0.5625 C -6.234375 -0.5625 -7.40625 -0.953125 -8.21875 -1.734375 C -9.039062 -2.523438 -9.453125 -3.671875 -9.453125 -5.171875 C -9.453125 -6.265625 -9.234375 -7.15625 -8.796875 -7.84375 C -8.359375 -8.53125 -7.710938 -9.015625 -6.859375 -9.296875 L -6.390625 -7.578125 C -6.859375 -7.429688 -7.226562 -7.144531 -7.5 -6.71875 C -7.78125 -6.289062 -7.921875 -5.789062 -7.921875 -5.21875 C -7.921875 -4.332031 -7.644531 -3.660156 -7.09375 -3.203125 C -6.550781 -2.742188 -5.753906 -2.515625 -4.703125 -2.515625 C -3.628906 -2.515625 -2.8125 -2.75 -2.25 -3.21875 C -1.6875 -3.6875 -1.40625 -4.367188 -1.40625 -5.265625 Z M -1.40625 -5.265625 "/></g></g></g><g fill="#2b2b2b" fill-opacity="1"><g transform="translate(229.876938, 139.110906)"><g><path d="M -7.8125 -5.109375 L 0 -5.109375 L 0 -3.15625 L -7.8125 -3.15625 L -7.8125 -0.15625 L -9.3125 -0.15625 L -9.3125 -8.125 L -7.8125 -8.125 Z M -7.8125 -5.109375 "/></g></g></g></svg>