<svg xmlns="http://www.w3.org/2000/svg" xmlns:xlink="http://www.w3.org/1999/xlink" width="500" zoomAndPan="magnify" viewBox="0 0 375 374.999991" height="500" preserveAspectRatio="xMidYMid meet" version="1.0"><defs><g/></defs><g fill="#2b2b2b" fill-opacity="1"><g transform="translate(133.197246, 231.560344)"><g><path d="M 5.921875 0 L 25.414062 0 L 60.359375 -76.101562 L 39.855469 -76.101562 Z M 8.230469 -55.308594 C 8.230469 -55.308594 9.675781 -61.226562 16.171875 -68.015625 C 22.671875 -74.945312 29.023438 -76.101562 29.023438 -76.101562 L 8.230469 -76.101562 Z M 39.566406 0 L 60.359375 0 L 60.359375 -20.792969 C 60.359375 -20.792969 58.917969 -14.875 52.417969 -8.085938 C 46.066406 -1.15625 39.566406 0 39.566406 0 Z M 39.566406 0 "/></g></g></g><g fill="#2b2b2b" fill-opacity="1"><g transform="translate(193.987624, 231.560344)"><g><path d="M 36.96875 -31.914062 C 41.734375 -31.914062 45.632812 -35.8125 45.632812 -40.722656 C 45.632812 -45.488281 41.734375 -49.386719 36.96875 -49.386719 C 32.058594 -49.386719 28.160156 -45.488281 28.160156 -40.722656 C 28.160156 -35.8125 32.058594 -31.914062 36.96875 -31.914062 Z M 6.066406 0 L 23.972656 0 L 23.972656 -48.085938 L 6.066406 -48.085938 Z M 6.066406 0 "/></g></g></g></svg>