<svg xmlns="http://www.w3.org/2000/svg" xmlns:xlink="http://www.w3.org/1999/xlink" width="500" zoomAndPan="magnify" viewBox="0 0 375 374.999991" height="500" preserveAspectRatio="xMidYMid meet" version="1.0"><defs><g/><clipPath id="0524f02093"><path d="M 56.511719 183.710938 L 77.078125 183.710938 L 77.078125 194.28125 L 56.511719 194.28125 Z M 56.511719 183.710938 " clip-rule="nonzero"/></clipPath><clipPath id="c2278dac2d"><path d="M 58.011719 183.710938 L 75.542969 183.710938 C 75.9375 183.710938 76.320312 183.867188 76.601562 184.148438 C 76.882812 184.429688 77.042969 184.8125 77.042969 185.210938 L 77.042969 192.78125 C 77.042969 193.179688 76.882812 193.5625 76.601562 193.84375 C 76.320312 194.125 75.9375 194.28125 75.542969 194.28125 L 58.011719 194.28125 C 57.613281 194.28125 57.230469 194.125 56.949219 193.84375 C 56.667969 193.5625 56.511719 193.179688 56.511719 192.78125 L 56.511719 185.210938 C 56.511719 184.8125 56.667969 184.429688 56.949219 184.148438 C 57.230469 183.867188 57.613281 183.710938 58.011719 183.710938 Z M 58.011719 183.710938 " clip-rule="nonzero"/></clipPath><clipPath id="f7a3e6ebca"><path d="M 283.257812 186.421875 L 298.980469 186.421875 L 298.980469 202.144531 L 283.257812 202.144531 Z M 283.257812 186.421875 " clip-rule="nonzero"/></clipPath><clipPath id="511618e26e"><path d="M 291.117188 186.421875 C 286.777344 186.421875 283.257812 189.941406 283.257812 194.28125 C 283.257812 198.625 286.777344 202.144531 291.117188 202.144531 C 295.460938 202.144531 298.980469 198.625 298.980469 194.28125 C 298.980469 189.941406 295.460938 186.421875 291.117188 186.421875 Z M 291.117188 186.421875 " clip-rule="nonzero"/></clipPath><clipPath id="1d569423ad"><path d="M 250.027344 208.304688 L 318.277344 208.304688 L 318.277344 226.304688 L 250.027344 226.304688 Z M 250.027344 208.304688 " clip-rule="nonzero"/></clipPath><clipPath id="50fcaee782"><path d="M 259.222656 208.304688 L 309.296875 208.304688 C 311.730469 208.304688 314.066406 209.269531 315.789062 210.992188 C 317.507812 212.714844 318.476562 215.050781 318.476562 217.484375 C 318.476562 219.921875 317.507812 222.253906 315.789062 223.976562 C 314.066406 225.699219 311.730469 226.667969 309.296875 226.667969 L 259.222656 226.667969 C 256.785156 226.667969 254.453125 225.699219 252.730469 223.976562 C 251.007812 222.253906 250.039062 219.921875 250.039062 217.484375 C 250.039062 215.050781 251.007812 212.714844 252.730469 210.992188 C 254.453125 209.269531 256.785156 208.304688 259.222656 208.304688 Z M 259.222656 208.304688 " clip-rule="nonzero"/></clipPath></defs><g clip-path="url(#0524f02093)"><g clip-path="url(#c2278dac2d)"><path fill="#000000" d="M 56.511719 183.710938 L 77.035156 183.710938 L 77.035156 194.28125 L 56.511719 194.28125 Z M 56.511719 183.710938 " fill-opacity="1" fill-rule="nonzero"/></g></g><g clip-path="url(#f7a3e6ebca)"><g clip-path="url(#511618e26e)"><path fill="#000000" d="M 283.257812 186.421875 L 298.980469 186.421875 L 298.980469 202.144531 L 283.257812 202.144531 Z M 283.257812 186.421875 " fill-opacity="1" fill-rule="nonzero"/></g></g><g clip-path="url(#1d569423ad)"><g clip-path="url(#50fcaee782)"><path stroke-linecap="butt" transform="matrix(0.75, 0, 0, 0.75, 250.040554, 208.303376)" fill="none" stroke-linejoin="miter" d="M 12.242804 0.00174877 L 79.008434 0.00174877 C 82.253225 0.00174877 85.367809 1.288207 87.664684 3.585082 C 89.956351 5.881957 91.248018 8.996541 91.248018 12.241333 C 91.248018 15.491333 89.956351 18.600708 87.664684 20.897583 C 85.367809 23.194459 82.253225 24.486125 79.008434 24.486125 L 12.242804 24.486125 C 8.992804 24.486125 5.883429 23.194459 3.586554 20.897583 C 1.289679 18.600708 -0.00198824 15.491333 -0.00198824 12.241333 C -0.00198824 8.996541 1.289679 5.881957 3.586554 3.585082 C 5.883429 1.288207 8.992804 0.00174877 12.242804 0.00174877 Z M 12.242804 0.00174877 " stroke="#000000" stroke-width="2" stroke-opacity="1" stroke-miterlimit="4"/></g></g><g fill="#000000" fill-opacity="1"><g transform="translate(78.959428, 205.593195)"><g><path d="M 47.625 -33.796875 C 51.375 -33.796875 54.1875 -32.71875 56.0625 -30.5625 C 57.945312 -28.414062 58.890625 -25.363281 58.890625 -21.40625 L 58.890625 0 L 46.4375 0 L 46.4375 -19.90625 C 46.4375 -21.320312 46.09375 -22.457031 45.40625 -23.3125 C 44.71875 -24.164062 43.742188 -24.59375 42.484375 -24.59375 C 41.023438 -24.59375 39.835938 -24.09375 38.921875 -23.09375 C 38.003906 -22.09375 37.546875 -20.863281 37.546875 -19.40625 L 37.546875 0 L 25.09375 0 L 25.09375 -19.90625 C 25.09375 -21.320312 24.75 -22.457031 24.0625 -23.3125 C 23.375 -24.164062 22.40625 -24.59375 21.15625 -24.59375 C 19.695312 -24.59375 18.503906 -24.09375 17.578125 -23.09375 C 16.660156 -22.09375 16.203125 -20.863281 16.203125 -19.40625 L 16.203125 0 L 3.75 0 L 3.75 -33.046875 L 13.953125 -33.046875 L 14.765625 -28.09375 C 16.015625 -29.84375 17.671875 -31.226562 19.734375 -32.25 C 21.804688 -33.28125 23.988281 -33.796875 26.28125 -33.796875 C 31.25 -33.796875 34.585938 -31.894531 36.296875 -28.09375 C 37.585938 -29.84375 39.242188 -31.226562 41.265625 -32.25 C 43.296875 -33.28125 45.414062 -33.796875 47.625 -33.796875 Z M 47.625 -33.796875 "/></g></g></g><g fill="#000000" fill-opacity="1"><g transform="translate(135.154252, 205.593195)"><g><path d="M 20.84375 -33.796875 C 26.632812 -33.796875 31.1875 -32.320312 34.5 -29.375 C 37.820312 -26.4375 39.484375 -22.148438 39.484375 -16.515625 C 39.484375 -10.890625 37.820312 -6.601562 34.5 -3.65625 C 31.1875 -0.71875 26.632812 0.75 20.84375 0.75 C 15.039062 0.75 10.488281 -0.707031 7.1875 -3.625 C 3.894531 -6.550781 2.25 -10.847656 2.25 -16.515625 C 2.25 -22.191406 3.894531 -26.488281 7.1875 -29.40625 C 10.488281 -32.332031 15.039062 -33.796875 20.84375 -33.796875 Z M 20.84375 -25.34375 C 16.75 -25.34375 14.703125 -22.984375 14.703125 -18.265625 L 14.703125 -14.703125 C 14.703125 -10.035156 16.75 -7.703125 20.84375 -7.703125 C 24.96875 -7.703125 27.03125 -10.035156 27.03125 -14.703125 L 27.03125 -18.265625 C 27.03125 -22.984375 24.96875 -25.34375 20.84375 -25.34375 Z M 20.84375 -25.34375 "/></g></g></g><g fill="#000000" fill-opacity="1"><g transform="translate(170.510576, 205.593195)"><g><path d="M 16.265625 -29.96875 C 18.648438 -32.519531 21.738281 -33.796875 25.53125 -33.796875 C 30 -33.796875 33.441406 -32.34375 35.859375 -29.4375 C 38.273438 -26.539062 39.484375 -22.253906 39.484375 -16.578125 C 39.484375 -10.867188 38.273438 -6.550781 35.859375 -3.625 C 33.441406 -0.707031 30 0.75 25.53125 0.75 C 20.9375 0.75 17.429688 -1.0625 15.015625 -4.6875 L 13.953125 0 L 3.8125 0 L 3.8125 -45.375 L 16.265625 -45.375 Z M 21.65625 -24.59375 C 19.820312 -24.59375 18.441406 -23.9375 17.515625 -22.625 C 16.597656 -21.3125 16.140625 -19.609375 16.140625 -17.515625 L 16.140625 -15.453125 C 16.140625 -13.367188 16.597656 -11.679688 17.515625 -10.390625 C 18.441406 -9.097656 19.820312 -8.453125 21.65625 -8.453125 C 25.238281 -8.453125 27.03125 -10.578125 27.03125 -14.828125 L 27.03125 -18.140625 C 27.03125 -22.441406 25.238281 -24.59375 21.65625 -24.59375 Z M 21.65625 -24.59375 "/></g></g></g><g fill="#000000" fill-opacity="1"><g transform="translate(205.8669, 205.593195)"><g><path d="M 4.1875 -36.921875 L 4.1875 -45.375 L 16.640625 -45.375 L 16.640625 -36.921875 Z M 4.1875 0 L 4.1875 -33.046875 L 16.640625 -33.046875 L 16.640625 0 Z M 4.1875 0 "/></g></g></g><g fill="#000000" fill-opacity="1"><g transform="translate(220.322149, 205.593195)"><g><path d="M 4.1875 0 L 4.1875 -45.375 L 16.640625 -45.375 L 16.640625 0 Z M 4.1875 0 "/></g></g></g><g fill="#000000" fill-opacity="1"><g transform="translate(234.777398, 205.593195)"><g><path d="M 20.84375 -33.796875 C 26.882812 -33.796875 31.5 -32.375 34.6875 -29.53125 C 37.882812 -26.695312 39.484375 -22.359375 39.484375 -16.515625 L 39.484375 -14.390625 L 14.703125 -14.390625 C 14.703125 -12.015625 15.234375 -10.222656 16.296875 -9.015625 C 17.359375 -7.804688 19.039062 -7.203125 21.34375 -7.203125 C 23.425781 -7.203125 24.957031 -7.640625 25.9375 -8.515625 C 26.914062 -9.390625 27.40625 -10.554688 27.40625 -12.015625 L 39.484375 -12.015625 C 39.484375 -8.003906 37.957031 -4.875 34.90625 -2.625 C 31.863281 -0.375 27.425781 0.75 21.59375 0.75 C 15.457031 0.75 10.695312 -0.675781 7.3125 -3.53125 C 3.9375 -6.394531 2.25 -10.722656 2.25 -16.515625 C 2.25 -22.191406 3.894531 -26.488281 7.1875 -29.40625 C 10.488281 -32.332031 15.039062 -33.796875 20.84375 -33.796875 Z M 21.34375 -25.84375 C 17.414062 -25.84375 15.222656 -23.988281 14.765625 -20.28125 L 26.90625 -20.28125 C 26.90625 -21.988281 26.414062 -23.34375 25.4375 -24.34375 C 24.457031 -25.34375 23.09375 -25.84375 21.34375 -25.84375 Z M 21.34375 -25.84375 "/></g></g></g><g fill="#000000" fill-opacity="1"><g transform="translate(267.420573, 223.22603)"><g><path d="M 2.933594 -9.777344 L 8.660156 -9.777344 L 8.660156 -10.882812 L 1.578125 -10.882812 L 1.578125 0 L 2.933594 0 L 2.933594 -4.890625 L 8.027344 -4.890625 L 8.027344 -5.992188 L 2.933594 -5.992188 Z M 2.933594 -9.777344 "/></g></g></g><g fill="#000000" fill-opacity="1"><g transform="translate(274.543528, 223.22603)"><g><path d="M 2.933594 0 L 2.933594 -10.882812 L 1.578125 -10.882812 L 1.578125 0 Z M 2.933594 0 "/></g></g></g><g fill="#000000" fill-opacity="1"><g transform="translate(276.890682, 223.22603)"><g><path d="M 8.738281 -2.855469 C 8.644531 -3.941406 8.21875 -4.9375 7.335938 -5.347656 C 8.34375 -5.664062 9.273438 -6.484375 9.273438 -7.917969 C 9.273438 -9.746094 8.136719 -10.613281 6.5625 -10.820312 C 6.074219 -10.882812 5.695312 -10.882812 5.140625 -10.882812 L 1.578125 -10.882812 L 1.578125 0 L 2.933594 0 L 2.933594 -4.683594 L 4.984375 -4.683594 C 5.238281 -4.683594 5.503906 -4.683594 5.757812 -4.667969 C 6.828125 -4.589844 7.253906 -3.847656 7.382812 -2.730469 C 7.523438 -1.386719 7.664062 -0.695312 7.964844 0 L 9.464844 0 C 9.023438 -0.582031 8.863281 -1.433594 8.738281 -2.855469 Z M 2.933594 -5.789062 L 2.933594 -9.777344 L 5.140625 -9.777344 C 5.628906 -9.777344 5.929688 -9.761719 6.230469 -9.714844 C 7.238281 -9.558594 7.824219 -9.007812 7.824219 -7.792969 C 7.824219 -6.5625 7.082031 -5.914062 6.074219 -5.820312 C 5.773438 -5.789062 5.503906 -5.789062 5.015625 -5.789062 Z M 2.933594 -5.789062 "/></g></g></g><g fill="#000000" fill-opacity="1"><g transform="translate(284.833251, 223.22603)"><g><path d="M 4.953125 -11.105469 C 2.949219 -11.105469 1.324219 -9.921875 1.324219 -8.042969 C 1.324219 -6.246094 2.664062 -5.472656 4.589844 -5.03125 C 6.5 -4.589844 7.253906 -3.992188 7.253906 -2.664062 C 7.253906 -1.53125 6.246094 -0.851562 5 -0.851562 C 3.582031 -0.851562 2.585938 -1.65625 2.269531 -3.089844 L 0.820312 -3.089844 C 1.058594 -0.992188 2.570312 0.222656 4.96875 0.222656 C 7.066406 0.222656 8.707031 -1.007812 8.707031 -2.917969 C 8.707031 -4.761719 7.507812 -5.742188 5.109375 -6.292969 C 3.453125 -6.671875 2.777344 -7.175781 2.777344 -8.359375 C 2.777344 -9.496094 3.691406 -10.03125 4.84375 -10.03125 C 6.214844 -10.03125 7.019531 -9.242188 7.144531 -7.871094 L 8.597656 -7.871094 C 8.390625 -9.730469 7.207031 -11.105469 4.953125 -11.105469 Z M 4.953125 -11.105469 "/></g></g></g><g fill="#000000" fill-opacity="1"><g transform="translate(292.239928, 223.22603)"><g><path d="M 9.652344 -9.777344 L 9.652344 -10.882812 L 0.535156 -10.882812 L 0.535156 -9.777344 L 4.417969 -9.777344 L 4.417969 0 L 5.773438 0 L 5.773438 -9.777344 Z M 9.652344 -9.777344 "/></g></g></g></svg>