<svg xmlns="http://www.w3.org/2000/svg" xmlns:xlink="http://www.w3.org/1999/xlink" width="500" zoomAndPan="magnify" viewBox="0 0 375 374.999991" height="500" preserveAspectRatio="xMidYMid meet" version="1.0"><defs><g/><clipPath id="832b0907e5"><path d="M 49.234375 126.652344 L 105.484375 126.652344 L 105.484375 248.347656 L 49.234375 248.347656 Z M 49.234375 126.652344 " clip-rule="nonzero"/></clipPath></defs><g fill="#2b2b2b" fill-opacity="1"><g transform="translate(109.787633, 215.394567)"><g><path d="M 2.6875 -60.78125 L 18.75 -60.78125 C 23.613281 -60.78125 27.082031 -59.210938 29.15625 -56.078125 C 31.226562 -52.941406 32.265625 -48.351562 32.265625 -42.3125 C 32.265625 -36.28125 31.34375 -31.726562 29.5 -28.65625 C 27.664062 -25.59375 24.367188 -24.0625 19.609375 -24.0625 L 14.65625 -24.0625 L 14.65625 0 L 2.6875 0 Z M 15.359375 -35.03125 C 16.816406 -35.03125 17.890625 -35.300781 18.578125 -35.84375 C 19.265625 -36.382812 19.710938 -37.160156 19.921875 -38.171875 C 20.128906 -39.191406 20.234375 -40.644531 20.234375 -42.53125 C 20.234375 -45.070312 19.953125 -46.910156 19.390625 -48.046875 C 18.828125 -49.179688 17.695312 -49.75 16 -49.75 L 14.65625 -49.75 L 14.65625 -35.03125 Z M 15.359375 -35.03125 "/></g></g></g><g fill="#2b2b2b" fill-opacity="1"><g transform="translate(143.18529, 215.394567)"><g><path d="M 2.6875 0 L 2.6875 -60.78125 L 27.03125 -60.78125 L 27.03125 -49.046875 L 15.078125 -49.046875 L 15.078125 -37.21875 L 26.53125 -37.21875 L 26.53125 -25.765625 L 15.078125 -25.765625 L 15.078125 -11.8125 L 27.8125 -11.8125 L 27.8125 0 Z M 2.6875 0 "/></g></g></g><g fill="#2b2b2b" fill-opacity="1"><g transform="translate(172.337476, 215.394567)"><g><path d="M 2.6875 -60.78125 L 21.375 -60.78125 C 24.34375 -60.78125 26.640625 -60.109375 28.265625 -58.765625 C 29.898438 -57.421875 31 -55.535156 31.5625 -53.109375 C 32.125 -50.679688 32.40625 -47.578125 32.40625 -43.796875 C 32.40625 -40.359375 31.957031 -37.671875 31.0625 -35.734375 C 30.164062 -33.796875 28.609375 -32.453125 26.390625 -31.703125 C 28.234375 -31.328125 29.566406 -30.40625 30.390625 -28.9375 C 31.210938 -27.476562 31.625 -25.5 31.625 -23 L 31.484375 0 L 19.609375 0 L 19.609375 -23.78125 C 19.609375 -25.476562 19.273438 -26.5625 18.609375 -27.03125 C 17.953125 -27.5 16.75 -27.734375 15 -27.734375 L 15 0 L 2.6875 0 Z M 17.96875 -38.28125 C 19.664062 -38.28125 20.515625 -40.117188 20.515625 -43.796875 C 20.515625 -45.398438 20.441406 -46.601562 20.296875 -47.40625 C 20.160156 -48.207031 19.90625 -48.757812 19.53125 -49.0625 C 19.15625 -49.375 18.613281 -49.53125 17.90625 -49.53125 L 15.078125 -49.53125 L 15.078125 -38.28125 Z M 17.96875 -38.28125 "/></g></g></g><g fill="#2b2b2b" fill-opacity="1"><g transform="translate(206.088916, 215.394567)"><g><path d="M 2.6875 0 L 2.6875 -60.78125 L 27.03125 -60.78125 L 27.03125 -48.96875 L 14.9375 -48.96875 L 14.9375 -39.28125 L 26.390625 -39.28125 L 26.390625 -27.59375 L 14.9375 -27.59375 L 14.9375 0 Z M 2.6875 0 "/></g></g></g><g fill="#2b2b2b" fill-opacity="1"><g transform="translate(234.321259, 215.394567)"><g><path d="M 2.6875 0 L 2.6875 -60.78125 L 27.03125 -60.78125 L 27.03125 -49.046875 L 15.078125 -49.046875 L 15.078125 -37.21875 L 26.53125 -37.21875 L 26.53125 -25.765625 L 15.078125 -25.765625 L 15.078125 -11.8125 L 27.8125 -11.8125 L 27.8125 0 Z M 2.6875 0 "/></g></g></g><g fill="#2b2b2b" fill-opacity="1"><g transform="translate(263.473444, 215.394567)"><g><path d="M 16.84375 0.5625 C 12.40625 0.5625 8.851562 -0.828125 6.1875 -3.609375 C 3.519531 -6.390625 2.1875 -10.210938 2.1875 -15.078125 L 2.1875 -43.09375 C 2.1875 -49.132812 3.390625 -53.6875 5.796875 -56.75 C 8.203125 -59.820312 11.976562 -61.359375 17.125 -61.359375 C 21.601562 -61.359375 25.210938 -60.128906 27.953125 -57.671875 C 30.691406 -55.222656 32.0625 -51.6875 32.0625 -47.0625 L 32.0625 -36.578125 L 19.953125 -36.578125 L 19.953125 -45.578125 C 19.953125 -47.316406 19.738281 -48.515625 19.3125 -49.171875 C 18.894531 -49.835938 18.164062 -50.171875 17.125 -50.171875 C 16.039062 -50.171875 15.296875 -49.789062 14.890625 -49.03125 C 14.492188 -48.28125 14.296875 -47.175781 14.296875 -45.71875 L 14.296875 -15.21875 C 14.296875 -13.613281 14.53125 -12.441406 15 -11.703125 C 15.46875 -10.972656 16.175781 -10.609375 17.125 -10.609375 C 19.007812 -10.609375 19.953125 -12.144531 19.953125 -15.21875 L 19.953125 -26.1875 L 32.203125 -26.1875 L 32.203125 -14.71875 C 32.203125 -4.53125 27.082031 0.5625 16.84375 0.5625 Z M 16.84375 0.5625 "/></g></g></g><g fill="#2b2b2b" fill-opacity="1"><g transform="translate(297.012619, 215.394567)"><g><path d="M 7.921875 0 L 7.921875 -49.109375 L 0.703125 -49.109375 L 0.703125 -60.78125 L 27.3125 -60.78125 L 27.3125 -49.109375 L 20.09375 -49.109375 L 20.09375 0 Z M 7.921875 0 "/></g></g></g><g clip-path="url(#832b0907e5)"><path fill="#2b2b2b" d="M 49.234375 126.652344 L 105.484375 126.652344 L 105.484375 248.382812 L 49.234375 248.382812 Z M 49.234375 126.652344 " fill-opacity="1" fill-rule="nonzero"/></g><g fill="#e6e6dd" fill-opacity="1"><g transform="translate(94.985547, 231.36936)"><g><path d="M -37.71875 -1.671875 L -37.71875 -11.640625 C -37.71875 -14.648438 -36.742188 -16.796875 -34.796875 -18.078125 C -32.847656 -19.367188 -30 -20.015625 -26.25 -20.015625 C -22.507812 -20.015625 -19.6875 -19.441406 -17.78125 -18.296875 C -15.875 -17.160156 -14.921875 -15.113281 -14.921875 -12.15625 L -14.921875 -9.09375 L 0 -9.09375 L 0 -1.671875 Z M -21.734375 -9.53125 C -21.734375 -10.4375 -21.898438 -11.097656 -22.234375 -11.515625 C -22.578125 -11.941406 -23.0625 -12.222656 -23.6875 -12.359375 C -24.3125 -12.492188 -25.210938 -12.5625 -26.390625 -12.5625 C -27.972656 -12.5625 -29.113281 -12.382812 -29.8125 -12.03125 C -30.507812 -11.675781 -30.859375 -10.972656 -30.859375 -9.921875 L -30.859375 -9.09375 L -21.734375 -9.09375 Z M -21.734375 -9.53125 "/></g></g></g><g fill="#e6e6dd" fill-opacity="1"><g transform="translate(94.985547, 210.649284)"><g><path d="M 0 -1.3125 L -37.71875 -1.3125 L -37.71875 -8.609375 L 0 -8.609375 Z M 0 -1.3125 "/></g></g></g><g fill="#e6e6dd" fill-opacity="1"><g transform="translate(94.985547, 200.684331)"><g><path d="M 0 -0.578125 L -20.015625 -4.609375 L -37.765625 -1.40625 L -37.765625 -8.78125 L -24.765625 -10.75 L -37.765625 -12.46875 L -37.765625 -19.890625 L -20.015625 -16.640625 L 0 -20.6875 L 0 -13.046875 L -14.75 -10.671875 L 0 -8.25 Z M 0 -0.578125 "/></g></g></g><g fill="#e6e6dd" fill-opacity="1"><g transform="translate(94.985547, 179.437472)"><g><path d="M 0 -1.671875 L -37.71875 -1.671875 L -37.71875 -16.765625 L -30.421875 -16.765625 L -30.421875 -9.359375 L -23.09375 -9.359375 L -23.09375 -16.46875 L -15.984375 -16.46875 L -15.984375 -9.359375 L -7.328125 -9.359375 L -7.328125 -17.25 L 0 -17.25 Z M 0 -1.671875 "/></g></g></g><g fill="#e6e6dd" fill-opacity="1"><g transform="translate(94.985547, 161.351311)"><g><path d="M 0 -1.671875 L -37.71875 -1.671875 L -37.71875 -9.21875 L -6.40625 -9.21875 L -6.40625 -16.984375 L 0 -16.984375 Z M 0 -1.671875 "/></g></g></g><g fill="#000000" fill-opacity="1"><g transform="translate(125.295319, 233.443271)"><g><path d="M 9.078125 -7.25 C 9.203125 -7.25 9.316406 -7.203125 9.421875 -7.109375 C 9.535156 -7.015625 9.59375 -6.882812 9.59375 -6.71875 C 9.59375 -6.664062 9.582031 -6.609375 9.5625 -6.546875 L 7.4375 -0.3125 C 7.40625 -0.21875 7.347656 -0.144531 7.265625 -0.09375 C 7.179688 -0.0390625 7.085938 -0.0078125 6.984375 0 C 6.890625 0 6.796875 -0.0234375 6.703125 -0.078125 C 6.617188 -0.140625 6.554688 -0.21875 6.515625 -0.3125 L 4.90625 -4.078125 L 3.3125 -0.3125 C 3.269531 -0.21875 3.203125 -0.140625 3.109375 -0.078125 C 3.023438 -0.0234375 2.929688 0 2.828125 0 C 2.734375 -0.0078125 2.644531 -0.0390625 2.5625 -0.09375 C 2.476562 -0.144531 2.421875 -0.21875 2.390625 -0.3125 L 0.265625 -6.546875 C 0.242188 -6.609375 0.234375 -6.664062 0.234375 -6.71875 C 0.234375 -6.875 0.285156 -7 0.390625 -7.09375 C 0.503906 -7.195312 0.628906 -7.25 0.765625 -7.25 C 0.867188 -7.25 0.96875 -7.21875 1.0625 -7.15625 C 1.15625 -7.101562 1.210938 -7.03125 1.234375 -6.9375 L 2.984375 -1.765625 L 4.46875 -5.4375 C 4.507812 -5.53125 4.570312 -5.601562 4.65625 -5.65625 C 4.738281 -5.71875 4.832031 -5.75 4.9375 -5.75 C 5.039062 -5.75 5.132812 -5.71875 5.21875 -5.65625 C 5.300781 -5.601562 5.363281 -5.53125 5.40625 -5.4375 L 6.859375 -1.765625 L 8.59375 -6.9375 C 8.613281 -7.03125 8.671875 -7.101562 8.765625 -7.15625 C 8.859375 -7.21875 8.960938 -7.25 9.078125 -7.25 Z M 9.078125 -7.25 "/></g></g></g><g fill="#000000" fill-opacity="1"><g transform="translate(141.832162, 233.443271)"><g><path d="M 5.46875 -2.90625 C 5.46875 -2.78125 5.414062 -2.675781 5.3125 -2.59375 C 5.21875 -2.507812 5.109375 -2.46875 4.984375 -2.46875 L 1.34375 -2.46875 C 1.394531 -1.96875 1.585938 -1.5625 1.921875 -1.25 C 2.253906 -0.945312 2.660156 -0.796875 3.140625 -0.796875 C 3.472656 -0.796875 3.742188 -0.84375 3.953125 -0.9375 C 4.160156 -1.039062 4.34375 -1.164062 4.5 -1.3125 C 4.601562 -1.375 4.703125 -1.40625 4.796875 -1.40625 C 4.910156 -1.40625 5.003906 -1.363281 5.078125 -1.28125 C 5.160156 -1.207031 5.203125 -1.113281 5.203125 -1 C 5.203125 -0.851562 5.132812 -0.722656 5 -0.609375 C 4.800781 -0.410156 4.535156 -0.238281 4.203125 -0.09375 C 3.878906 0.0390625 3.546875 0.109375 3.203125 0.109375 C 2.640625 0.109375 2.144531 -0.00390625 1.71875 -0.234375 C 1.300781 -0.472656 0.976562 -0.800781 0.75 -1.21875 C 0.519531 -1.644531 0.40625 -2.125 0.40625 -2.65625 C 0.40625 -3.226562 0.519531 -3.734375 0.75 -4.171875 C 0.988281 -4.609375 1.300781 -4.941406 1.6875 -5.171875 C 2.082031 -5.410156 2.503906 -5.53125 2.953125 -5.53125 C 3.390625 -5.53125 3.800781 -5.414062 4.1875 -5.1875 C 4.570312 -4.957031 4.878906 -4.644531 5.109375 -4.25 C 5.347656 -3.851562 5.46875 -3.40625 5.46875 -2.90625 Z M 2.953125 -4.625 C 2.566406 -4.625 2.234375 -4.515625 1.953125 -4.296875 C 1.671875 -4.078125 1.484375 -3.742188 1.390625 -3.296875 L 4.4375 -3.296875 L 4.4375 -3.375 C 4.40625 -3.738281 4.238281 -4.035156 3.9375 -4.265625 C 3.644531 -4.503906 3.316406 -4.625 2.953125 -4.625 Z M 2.953125 -4.625 "/></g></g></g><g fill="#000000" fill-opacity="1"><g transform="translate(154.423815, 233.443271)"><g><path d="M 3.4375 -5.53125 C 3.90625 -5.53125 4.328125 -5.410156 4.703125 -5.171875 C 5.085938 -4.929688 5.390625 -4.597656 5.609375 -4.171875 C 5.828125 -3.742188 5.9375 -3.257812 5.9375 -2.71875 C 5.9375 -2.1875 5.828125 -1.703125 5.609375 -1.265625 C 5.390625 -0.835938 5.085938 -0.5 4.703125 -0.25 C 4.328125 -0.0078125 3.914062 0.109375 3.46875 0.109375 C 3.101562 0.109375 2.765625 0.03125 2.453125 -0.125 C 2.148438 -0.289062 1.90625 -0.488281 1.71875 -0.71875 L 1.71875 -0.421875 C 1.71875 -0.285156 1.671875 -0.164062 1.578125 -0.0625 C 1.484375 0.03125 1.363281 0.078125 1.21875 0.078125 C 1.082031 0.078125 0.96875 0.03125 0.875 -0.0625 C 0.78125 -0.15625 0.734375 -0.273438 0.734375 -0.421875 L 0.734375 -7.140625 C 0.734375 -7.285156 0.773438 -7.398438 0.859375 -7.484375 C 0.953125 -7.578125 1.070312 -7.625 1.21875 -7.625 C 1.363281 -7.625 1.484375 -7.578125 1.578125 -7.484375 C 1.671875 -7.390625 1.71875 -7.273438 1.71875 -7.140625 L 1.71875 -4.625 C 1.875 -4.863281 2.109375 -5.070312 2.421875 -5.25 C 2.742188 -5.4375 3.082031 -5.53125 3.4375 -5.53125 Z M 3.328125 -0.796875 C 3.648438 -0.796875 3.9375 -0.878906 4.1875 -1.046875 C 4.4375 -1.222656 4.628906 -1.457031 4.765625 -1.75 C 4.910156 -2.039062 4.984375 -2.363281 4.984375 -2.71875 C 4.984375 -3.082031 4.910156 -3.40625 4.765625 -3.6875 C 4.628906 -3.976562 4.4375 -4.207031 4.1875 -4.375 C 3.9375 -4.539062 3.648438 -4.625 3.328125 -4.625 C 3.003906 -4.625 2.710938 -4.539062 2.453125 -4.375 C 2.203125 -4.207031 2.003906 -3.976562 1.859375 -3.6875 C 1.722656 -3.40625 1.65625 -3.082031 1.65625 -2.71875 C 1.65625 -2.351562 1.722656 -2.023438 1.859375 -1.734375 C 2.003906 -1.453125 2.203125 -1.222656 2.453125 -1.046875 C 2.710938 -0.878906 3.003906 -0.796875 3.328125 -0.796875 Z M 3.328125 -0.796875 "/></g></g></g><g fill="#000000" fill-opacity="1"><g transform="translate(167.468712, 233.443271)"><g/></g></g><g fill="#000000" fill-opacity="1"><g transform="translate(177.042249, 233.443271)"><g><path d="M 3.890625 -7.21875 C 4.535156 -7.21875 5.085938 -7.054688 5.546875 -6.734375 C 6.003906 -6.410156 6.347656 -5.972656 6.578125 -5.421875 C 6.816406 -4.878906 6.9375 -4.273438 6.9375 -3.609375 C 6.9375 -2.929688 6.816406 -2.316406 6.578125 -1.765625 C 6.347656 -1.222656 6.003906 -0.789062 5.546875 -0.46875 C 5.085938 -0.15625 4.535156 0 3.890625 0 L 1.34375 0 C 1.207031 0 1.09375 -0.046875 1 -0.140625 C 0.90625 -0.234375 0.859375 -0.351562 0.859375 -0.5 L 0.859375 -6.71875 C 0.859375 -6.863281 0.90625 -6.984375 1 -7.078125 C 1.09375 -7.171875 1.207031 -7.21875 1.34375 -7.21875 Z M 3.78125 -0.953125 C 4.488281 -0.953125 5.015625 -1.195312 5.359375 -1.6875 C 5.710938 -2.1875 5.890625 -2.828125 5.890625 -3.609375 C 5.890625 -4.378906 5.710938 -5.015625 5.359375 -5.515625 C 5.003906 -6.015625 4.476562 -6.265625 3.78125 -6.265625 L 1.875 -6.265625 L 1.875 -0.953125 Z M 3.78125 -0.953125 "/></g></g></g><g fill="#000000" fill-opacity="1"><g transform="translate(191.148115, 233.443271)"><g><path d="M 5.46875 -2.90625 C 5.46875 -2.78125 5.414062 -2.675781 5.3125 -2.59375 C 5.21875 -2.507812 5.109375 -2.46875 4.984375 -2.46875 L 1.34375 -2.46875 C 1.394531 -1.96875 1.585938 -1.5625 1.921875 -1.25 C 2.253906 -0.945312 2.660156 -0.796875 3.140625 -0.796875 C 3.472656 -0.796875 3.742188 -0.84375 3.953125 -0.9375 C 4.160156 -1.039062 4.34375 -1.164062 4.5 -1.3125 C 4.601562 -1.375 4.703125 -1.40625 4.796875 -1.40625 C 4.910156 -1.40625 5.003906 -1.363281 5.078125 -1.28125 C 5.160156 -1.207031 5.203125 -1.113281 5.203125 -1 C 5.203125 -0.851562 5.132812 -0.722656 5 -0.609375 C 4.800781 -0.410156 4.535156 -0.238281 4.203125 -0.09375 C 3.878906 0.0390625 3.546875 0.109375 3.203125 0.109375 C 2.640625 0.109375 2.144531 -0.00390625 1.71875 -0.234375 C 1.300781 -0.472656 0.976562 -0.800781 0.75 -1.21875 C 0.519531 -1.644531 0.40625 -2.125 0.40625 -2.65625 C 0.40625 -3.226562 0.519531 -3.734375 0.75 -4.171875 C 0.988281 -4.609375 1.300781 -4.941406 1.6875 -5.171875 C 2.082031 -5.410156 2.503906 -5.53125 2.953125 -5.53125 C 3.390625 -5.53125 3.800781 -5.414062 4.1875 -5.1875 C 4.570312 -4.957031 4.878906 -4.644531 5.109375 -4.25 C 5.347656 -3.851562 5.46875 -3.40625 5.46875 -2.90625 Z M 2.953125 -4.625 C 2.566406 -4.625 2.234375 -4.515625 1.953125 -4.296875 C 1.671875 -4.078125 1.484375 -3.742188 1.390625 -3.296875 L 4.4375 -3.296875 L 4.4375 -3.375 C 4.40625 -3.738281 4.238281 -4.035156 3.9375 -4.265625 C 3.644531 -4.503906 3.316406 -4.625 2.953125 -4.625 Z M 2.953125 -4.625 "/></g></g></g><g fill="#000000" fill-opacity="1"><g transform="translate(203.739768, 233.443271)"><g><path d="M 4.859375 -5.453125 C 4.984375 -5.453125 5.09375 -5.410156 5.1875 -5.328125 C 5.28125 -5.242188 5.328125 -5.140625 5.328125 -5.015625 C 5.328125 -4.953125 5.300781 -4.867188 5.25 -4.765625 L 3.296875 -0.3125 C 3.253906 -0.21875 3.191406 -0.144531 3.109375 -0.09375 C 3.035156 -0.0390625 2.953125 -0.0078125 2.859375 0 C 2.753906 0.0078125 2.65625 -0.0078125 2.5625 -0.0625 C 2.46875 -0.113281 2.394531 -0.195312 2.34375 -0.3125 L 0.390625 -4.765625 C 0.359375 -4.867188 0.34375 -4.953125 0.34375 -5.015625 C 0.34375 -5.128906 0.382812 -5.226562 0.46875 -5.3125 C 0.5625 -5.40625 0.679688 -5.453125 0.828125 -5.453125 C 0.929688 -5.453125 1.023438 -5.425781 1.109375 -5.375 C 1.191406 -5.320312 1.253906 -5.242188 1.296875 -5.140625 L 2.859375 -1.53125 L 4.40625 -5.140625 C 4.507812 -5.347656 4.660156 -5.453125 4.859375 -5.453125 Z M 4.859375 -5.453125 "/></g></g></g><g fill="#000000" fill-opacity="1"><g transform="translate(216.104805, 233.443271)"><g><path d="M 5.46875 -2.90625 C 5.46875 -2.78125 5.414062 -2.675781 5.3125 -2.59375 C 5.21875 -2.507812 5.109375 -2.46875 4.984375 -2.46875 L 1.34375 -2.46875 C 1.394531 -1.96875 1.585938 -1.5625 1.921875 -1.25 C 2.253906 -0.945312 2.660156 -0.796875 3.140625 -0.796875 C 3.472656 -0.796875 3.742188 -0.84375 3.953125 -0.9375 C 4.160156 -1.039062 4.34375 -1.164062 4.5 -1.3125 C 4.601562 -1.375 4.703125 -1.40625 4.796875 -1.40625 C 4.910156 -1.40625 5.003906 -1.363281 5.078125 -1.28125 C 5.160156 -1.207031 5.203125 -1.113281 5.203125 -1 C 5.203125 -0.851562 5.132812 -0.722656 5 -0.609375 C 4.800781 -0.410156 4.535156 -0.238281 4.203125 -0.09375 C 3.878906 0.0390625 3.546875 0.109375 3.203125 0.109375 C 2.640625 0.109375 2.144531 -0.00390625 1.71875 -0.234375 C 1.300781 -0.472656 0.976562 -0.800781 0.75 -1.21875 C 0.519531 -1.644531 0.40625 -2.125 0.40625 -2.65625 C 0.40625 -3.226562 0.519531 -3.734375 0.75 -4.171875 C 0.988281 -4.609375 1.300781 -4.941406 1.6875 -5.171875 C 2.082031 -5.410156 2.503906 -5.53125 2.953125 -5.53125 C 3.390625 -5.53125 3.800781 -5.414062 4.1875 -5.1875 C 4.570312 -4.957031 4.878906 -4.644531 5.109375 -4.25 C 5.347656 -3.851562 5.46875 -3.40625 5.46875 -2.90625 Z M 2.953125 -4.625 C 2.566406 -4.625 2.234375 -4.515625 1.953125 -4.296875 C 1.671875 -4.078125 1.484375 -3.742188 1.390625 -3.296875 L 4.4375 -3.296875 L 4.4375 -3.375 C 4.40625 -3.738281 4.238281 -4.035156 3.9375 -4.265625 C 3.644531 -4.503906 3.316406 -4.625 2.953125 -4.625 Z M 2.953125 -4.625 "/></g></g></g><g fill="#000000" fill-opacity="1"><g transform="translate(228.696458, 233.443271)"><g><path d="M 1.796875 -0.5 C 1.796875 -0.351562 1.742188 -0.234375 1.640625 -0.140625 C 1.546875 -0.046875 1.429688 0 1.296875 0 C 1.160156 0 1.046875 -0.046875 0.953125 -0.140625 C 0.859375 -0.234375 0.8125 -0.351562 0.8125 -0.5 L 0.8125 -7.140625 C 0.8125 -7.273438 0.859375 -7.390625 0.953125 -7.484375 C 1.054688 -7.578125 1.175781 -7.625 1.3125 -7.625 C 1.445312 -7.625 1.5625 -7.578125 1.65625 -7.484375 C 1.75 -7.390625 1.796875 -7.273438 1.796875 -7.140625 Z M 1.796875 -0.5 "/></g></g></g><g fill="#000000" fill-opacity="1"><g transform="translate(238.022786, 233.443271)"><g><path d="M 5.84375 -2.703125 C 5.84375 -2.160156 5.722656 -1.675781 5.484375 -1.25 C 5.242188 -0.832031 4.914062 -0.5 4.5 -0.25 C 4.082031 -0.0078125 3.625 0.109375 3.125 0.109375 C 2.625 0.109375 2.164062 -0.0078125 1.75 -0.25 C 1.332031 -0.5 1.003906 -0.832031 0.765625 -1.25 C 0.523438 -1.675781 0.40625 -2.160156 0.40625 -2.703125 C 0.40625 -3.234375 0.523438 -3.71875 0.765625 -4.15625 C 1.003906 -4.59375 1.332031 -4.929688 1.75 -5.171875 C 2.164062 -5.410156 2.625 -5.53125 3.125 -5.53125 C 3.625 -5.53125 4.082031 -5.410156 4.5 -5.171875 C 4.914062 -4.929688 5.242188 -4.59375 5.484375 -4.15625 C 5.722656 -3.71875 5.84375 -3.234375 5.84375 -2.703125 Z M 4.875 -2.703125 C 4.875 -3.078125 4.796875 -3.410156 4.640625 -3.703125 C 4.484375 -3.992188 4.269531 -4.21875 4 -4.375 C 3.738281 -4.539062 3.445312 -4.625 3.125 -4.625 C 2.800781 -4.625 2.503906 -4.539062 2.234375 -4.375 C 1.972656 -4.21875 1.765625 -3.992188 1.609375 -3.703125 C 1.453125 -3.410156 1.375 -3.078125 1.375 -2.703125 C 1.375 -2.335938 1.453125 -2.007812 1.609375 -1.71875 C 1.765625 -1.4375 1.972656 -1.210938 2.234375 -1.046875 C 2.503906 -0.878906 2.800781 -0.796875 3.125 -0.796875 C 3.445312 -0.796875 3.738281 -0.878906 4 -1.046875 C 4.269531 -1.210938 4.484375 -1.4375 4.640625 -1.71875 C 4.796875 -2.007812 4.875 -2.335938 4.875 -2.703125 Z M 4.875 -2.703125 "/></g></g></g><g fill="#000000" fill-opacity="1"><g transform="translate(250.985268, 233.443271)"><g><path d="M 3.4375 -5.5 C 3.90625 -5.5 4.328125 -5.378906 4.703125 -5.140625 C 5.085938 -4.898438 5.390625 -4.566406 5.609375 -4.140625 C 5.828125 -3.710938 5.9375 -3.234375 5.9375 -2.703125 C 5.9375 -2.160156 5.828125 -1.675781 5.609375 -1.25 C 5.390625 -0.832031 5.085938 -0.503906 4.703125 -0.265625 C 4.328125 -0.0234375 3.914062 0.09375 3.46875 0.09375 C 3.101562 0.09375 2.765625 0.015625 2.453125 -0.140625 C 2.148438 -0.296875 1.90625 -0.488281 1.71875 -0.71875 L 1.71875 1.5625 C 1.71875 1.707031 1.671875 1.828125 1.578125 1.921875 C 1.484375 2.015625 1.363281 2.0625 1.21875 2.0625 C 1.082031 2.0625 0.96875 2.015625 0.875 1.921875 C 0.78125 1.828125 0.734375 1.707031 0.734375 1.5625 L 0.734375 -4.921875 C 0.734375 -5.066406 0.773438 -5.1875 0.859375 -5.28125 C 0.953125 -5.375 1.070312 -5.421875 1.21875 -5.421875 C 1.363281 -5.421875 1.484375 -5.375 1.578125 -5.28125 C 1.671875 -5.1875 1.71875 -5.066406 1.71875 -4.921875 L 1.71875 -4.625 C 1.875 -4.863281 2.109375 -5.066406 2.421875 -5.234375 C 2.742188 -5.410156 3.082031 -5.5 3.4375 -5.5 Z M 3.328125 -0.8125 C 3.648438 -0.8125 3.9375 -0.894531 4.1875 -1.0625 C 4.4375 -1.226562 4.628906 -1.453125 4.765625 -1.734375 C 4.910156 -2.023438 4.984375 -2.347656 4.984375 -2.703125 C 4.984375 -3.054688 4.910156 -3.375 4.765625 -3.65625 C 4.628906 -3.945312 4.4375 -4.175781 4.1875 -4.34375 C 3.9375 -4.507812 3.648438 -4.59375 3.328125 -4.59375 C 3.003906 -4.59375 2.710938 -4.507812 2.453125 -4.34375 C 2.203125 -4.1875 2.003906 -3.960938 1.859375 -3.671875 C 1.722656 -3.378906 1.65625 -3.054688 1.65625 -2.703125 C 1.65625 -2.347656 1.722656 -2.023438 1.859375 -1.734375 C 2.003906 -1.441406 2.203125 -1.210938 2.453125 -1.046875 C 2.710938 -0.890625 3.003906 -0.8125 3.328125 -0.8125 Z M 3.328125 -0.8125 "/></g></g></g><g fill="#000000" fill-opacity="1"><g transform="translate(264.030158, 233.443271)"><g><path d="M 6.9375 -5.5 C 8.132812 -5.5 8.734375 -4.75 8.734375 -3.25 L 8.734375 -0.5 C 8.734375 -0.351562 8.6875 -0.234375 8.59375 -0.140625 C 8.507812 -0.046875 8.394531 0 8.25 0 C 8.101562 0 7.984375 -0.046875 7.890625 -0.140625 C 7.796875 -0.234375 7.75 -0.351562 7.75 -0.5 L 7.75 -3.234375 C 7.75 -4.140625 7.375 -4.59375 6.625 -4.59375 C 6.351562 -4.59375 6.109375 -4.53125 5.890625 -4.40625 C 5.671875 -4.289062 5.5 -4.128906 5.375 -3.921875 C 5.257812 -3.710938 5.203125 -3.484375 5.203125 -3.234375 L 5.203125 -0.5 C 5.203125 -0.351562 5.15625 -0.234375 5.0625 -0.140625 C 4.96875 -0.046875 4.851562 0 4.71875 0 C 4.570312 0 4.453125 -0.046875 4.359375 -0.140625 C 4.273438 -0.234375 4.234375 -0.351562 4.234375 -0.5 L 4.234375 -3.25 C 4.234375 -3.65625 4.144531 -3.976562 3.96875 -4.21875 C 3.800781 -4.46875 3.515625 -4.59375 3.109375 -4.59375 C 2.703125 -4.59375 2.367188 -4.460938 2.109375 -4.203125 C 1.847656 -3.941406 1.71875 -3.625 1.71875 -3.25 L 1.71875 -0.5 C 1.71875 -0.351562 1.671875 -0.234375 1.578125 -0.140625 C 1.484375 -0.046875 1.363281 0 1.21875 0 C 1.070312 0 0.953125 -0.046875 0.859375 -0.140625 C 0.773438 -0.234375 0.734375 -0.351562 0.734375 -0.5 L 0.734375 -4.90625 C 0.734375 -5.039062 0.78125 -5.15625 0.875 -5.25 C 0.96875 -5.351562 1.082031 -5.40625 1.21875 -5.40625 C 1.363281 -5.40625 1.484375 -5.351562 1.578125 -5.25 C 1.671875 -5.15625 1.71875 -5.039062 1.71875 -4.90625 L 1.71875 -4.546875 C 1.894531 -4.816406 2.128906 -5.039062 2.421875 -5.21875 C 2.722656 -5.40625 3.050781 -5.5 3.40625 -5.5 C 4.257812 -5.5 4.8125 -5.117188 5.0625 -4.359375 C 5.21875 -4.648438 5.46875 -4.910156 5.8125 -5.140625 C 6.164062 -5.378906 6.539062 -5.5 6.9375 -5.5 Z M 6.9375 -5.5 "/></g></g></g><g fill="#000000" fill-opacity="1"><g transform="translate(280.206472, 233.443271)"><g><path d="M 5.46875 -2.90625 C 5.46875 -2.78125 5.414062 -2.675781 5.3125 -2.59375 C 5.21875 -2.507812 5.109375 -2.46875 4.984375 -2.46875 L 1.34375 -2.46875 C 1.394531 -1.96875 1.585938 -1.5625 1.921875 -1.25 C 2.253906 -0.945312 2.660156 -0.796875 3.140625 -0.796875 C 3.472656 -0.796875 3.742188 -0.84375 3.953125 -0.9375 C 4.160156 -1.039062 4.34375 -1.164062 4.5 -1.3125 C 4.601562 -1.375 4.703125 -1.40625 4.796875 -1.40625 C 4.910156 -1.40625 5.003906 -1.363281 5.078125 -1.28125 C 5.160156 -1.207031 5.203125 -1.113281 5.203125 -1 C 5.203125 -0.851562 5.132812 -0.722656 5 -0.609375 C 4.800781 -0.410156 4.535156 -0.238281 4.203125 -0.09375 C 3.878906 0.0390625 3.546875 0.109375 3.203125 0.109375 C 2.640625 0.109375 2.144531 -0.00390625 1.71875 -0.234375 C 1.300781 -0.472656 0.976562 -0.800781 0.75 -1.21875 C 0.519531 -1.644531 0.40625 -2.125 0.40625 -2.65625 C 0.40625 -3.226562 0.519531 -3.734375 0.75 -4.171875 C 0.988281 -4.609375 1.300781 -4.941406 1.6875 -5.171875 C 2.082031 -5.410156 2.503906 -5.53125 2.953125 -5.53125 C 3.390625 -5.53125 3.800781 -5.414062 4.1875 -5.1875 C 4.570312 -4.957031 4.878906 -4.644531 5.109375 -4.25 C 5.347656 -3.851562 5.46875 -3.40625 5.46875 -2.90625 Z M 2.953125 -4.625 C 2.566406 -4.625 2.234375 -4.515625 1.953125 -4.296875 C 1.671875 -4.078125 1.484375 -3.742188 1.390625 -3.296875 L 4.4375 -3.296875 L 4.4375 -3.375 C 4.40625 -3.738281 4.238281 -4.035156 3.9375 -4.265625 C 3.644531 -4.503906 3.316406 -4.625 2.953125 -4.625 Z M 2.953125 -4.625 "/></g></g></g><g fill="#000000" fill-opacity="1"><g transform="translate(292.79813, 233.443271)"><g><path d="M 3.484375 -5.53125 C 4.722656 -5.53125 5.34375 -4.785156 5.34375 -3.296875 L 5.34375 -0.5 C 5.34375 -0.351562 5.296875 -0.234375 5.203125 -0.140625 C 5.109375 -0.046875 4.988281 0 4.84375 0 C 4.707031 0 4.59375 -0.046875 4.5 -0.140625 C 4.40625 -0.234375 4.359375 -0.351562 4.359375 -0.5 L 4.359375 -3.296875 C 4.359375 -3.691406 4.265625 -4.007812 4.078125 -4.25 C 3.898438 -4.5 3.597656 -4.625 3.171875 -4.625 C 2.898438 -4.625 2.648438 -4.5625 2.421875 -4.4375 C 2.203125 -4.320312 2.03125 -4.160156 1.90625 -3.953125 C 1.78125 -3.753906 1.71875 -3.535156 1.71875 -3.296875 L 1.71875 -0.5 C 1.71875 -0.351562 1.671875 -0.234375 1.578125 -0.140625 C 1.484375 -0.046875 1.363281 0 1.21875 0 C 1.070312 0 0.953125 -0.046875 0.859375 -0.140625 C 0.773438 -0.234375 0.734375 -0.351562 0.734375 -0.5 L 0.734375 -4.90625 C 0.734375 -5.039062 0.78125 -5.15625 0.875 -5.25 C 0.96875 -5.351562 1.082031 -5.40625 1.21875 -5.40625 C 1.363281 -5.40625 1.484375 -5.351562 1.578125 -5.25 C 1.671875 -5.15625 1.71875 -5.039062 1.71875 -4.90625 L 1.71875 -4.546875 C 1.894531 -4.816406 2.140625 -5.046875 2.453125 -5.234375 C 2.773438 -5.429688 3.117188 -5.53125 3.484375 -5.53125 Z M 3.484375 -5.53125 "/></g></g></g><g fill="#000000" fill-opacity="1"><g transform="translate(305.585506, 233.443271)"><g><path d="M 2.203125 -4.4375 L 2.203125 -1.375 C 2.203125 -1.03125 2.351562 -0.859375 2.65625 -0.859375 C 2.707031 -0.859375 2.773438 -0.867188 2.859375 -0.890625 C 2.941406 -0.910156 3.003906 -0.921875 3.046875 -0.921875 C 3.140625 -0.921875 3.21875 -0.882812 3.28125 -0.8125 C 3.34375 -0.738281 3.375 -0.644531 3.375 -0.53125 C 3.375 -0.382812 3.289062 -0.257812 3.125 -0.15625 C 2.957031 -0.0507812 2.769531 0 2.5625 0 C 2.34375 0 2.132812 -0.0195312 1.9375 -0.0625 C 1.75 -0.113281 1.582031 -0.238281 1.4375 -0.4375 C 1.289062 -0.632812 1.21875 -0.929688 1.21875 -1.328125 L 1.21875 -4.4375 L 0.625 -4.4375 C 0.488281 -4.4375 0.378906 -4.476562 0.296875 -4.5625 C 0.210938 -4.65625 0.171875 -4.769531 0.171875 -4.90625 C 0.171875 -5.03125 0.210938 -5.132812 0.296875 -5.21875 C 0.378906 -5.300781 0.488281 -5.34375 0.625 -5.34375 L 1.21875 -5.34375 L 1.21875 -6.203125 C 1.21875 -6.347656 1.265625 -6.46875 1.359375 -6.5625 C 1.453125 -6.65625 1.570312 -6.703125 1.71875 -6.703125 C 1.851562 -6.703125 1.96875 -6.65625 2.0625 -6.5625 C 2.15625 -6.46875 2.203125 -6.347656 2.203125 -6.203125 L 2.203125 -5.34375 L 3.046875 -5.34375 C 3.179688 -5.34375 3.289062 -5.296875 3.375 -5.203125 C 3.457031 -5.117188 3.5 -5.015625 3.5 -4.890625 C 3.5 -4.753906 3.457031 -4.644531 3.375 -4.5625 C 3.289062 -4.476562 3.179688 -4.4375 3.046875 -4.4375 Z M 2.203125 -4.4375 "/></g></g></g></svg>