<svg xmlns="http://www.w3.org/2000/svg" xmlns:xlink="http://www.w3.org/1999/xlink" width="500" zoomAndPan="magnify" viewBox="0 0 375 374.999991" height="500" preserveAspectRatio="xMidYMid meet" version="1.0"><defs><g/><clipPath id="b74f2ac085"><path d="M 74 210 L 188 210 L 188 231 L 74 231 Z M 74 210 " clip-rule="nonzero"/></clipPath><clipPath id="cce297db57"><path d="M 73.546875 220.429688 L 187.46875 206.660156 L 189.089844 220.0625 L 75.167969 233.832031 Z M 73.546875 220.429688 " clip-rule="nonzero"/></clipPath><clipPath id="b45838e1f3"><path d="M 73.546875 220.429688 L 187.46875 206.660156 L 189.089844 220.0625 L 75.167969 233.832031 Z M 73.546875 220.429688 " clip-rule="nonzero"/></clipPath><clipPath id="8b4da64abf"><path d="M 73.546875 220.429688 L 187.46875 206.660156 L 189.089844 220.0625 L 75.167969 233.832031 Z M 73.546875 220.429688 " clip-rule="nonzero"/></clipPath></defs><g fill="#000000" fill-opacity="1"><g transform="translate(77.766396, 213.531936)"><g><path d="M 45.621094 -3.527344 C 44.707031 -2.546875 43.214844 -1.496094 40.25 -1.15625 C 33.085938 -0.335938 29.890625 -4.589844 27.71875 -10.128906 C 34.058594 -18.769531 37.296875 -32.113281 36.15625 -42.09375 C 34.988281 -52.296875 29.070312 -57.921875 18.941406 -56.765625 C 1.289062 -54.746094 -1.765625 -34.683594 2.0625 -26.179688 C 0 -23.085938 -0.863281 -19.101562 -0.375 -14.835938 C 0.8125 -4.417969 8.261719 -0.796875 14.847656 -1.550781 C 17.304688 -1.832031 19.621094 -2.753906 21.730469 -4.167969 C 23.492188 4.203125 26.613281 11.617188 35.148438 10.640625 C 42.09375 9.847656 45.875 3.183594 46.304688 -3.3125 Z M 17.800781 -44.320312 C 21.921875 -44.792969 25.121094 -42.445312 25.757812 -36.875 C 26.238281 -32.679688 25.222656 -28.09375 23.199219 -24.636719 C 21.253906 -29.472656 18.292969 -32.945312 12.21875 -32.25 C 10.554688 -32.058594 9.058594 -31.667969 7.734375 -31.078125 C 8.007812 -36.386719 11.214844 -43.570312 17.800781 -44.320312 Z M 15.707031 -19.019531 C 11.441406 -18.53125 9.417969 -20.203125 9.210938 -22.011719 C 8.988281 -23.964844 10.332031 -25.660156 12.574219 -25.914062 C 15.683594 -26.269531 17.367188 -23.75 18.535156 -19.925781 C 17.636719 -19.457031 16.722656 -19.132812 15.707031 -19.019531 Z M 15.707031 -19.019531 "/></g></g></g><g fill="#000000" fill-opacity="1"><g transform="translate(116.823992, 209.067446)"><g><path d="M 35.570312 -24.148438 C 34.371094 -21.8125 33.167969 -20.132812 31 -19.886719 C 29.046875 -19.664062 27.167969 -20.695312 26.855469 -23.445312 C 26.441406 -27.0625 29.070312 -32.929688 28.605469 -36.980469 C 28.367188 -39.078125 27.480469 -39.785156 26.03125 -39.621094 C 22.34375 -39.199219 19.964844 -33.722656 18.082031 -23.90625 L 18.042969 -23.609375 C 17.226562 -19.851562 15.148438 -18.148438 12.542969 -17.851562 C 10.15625 -17.578125 9.363281 -18.734375 9.132812 -20.757812 C 8.644531 -25.027344 11.347656 -30.246094 10.808594 -34.949219 C 10.59375 -36.828125 9.828125 -37.765625 8.234375 -37.585938 C 4.183594 -37.121094 1.519531 -30.953125 -0.601562 -20.011719 C -1.511719 -15.144531 -1.167969 -10.859375 -0.921875 -8.6875 C -0.242188 -2.757812 2.523438 -0.363281 6.429688 -0.808594 C 12.074219 -1.453125 15.046875 -7.507812 16.84375 -12.917969 C 16.824219 -11.816406 16.859375 -10.867188 16.96875 -9.929688 C 17.554688 -4.792969 19.820312 -2.265625 24.089844 -2.753906 C 33.855469 -3.871094 37.171875 -18.464844 39.03125 -22.710938 C 39.671875 -24.175781 36.527344 -26.015625 35.570312 -24.148438 Z M 35.570312 -24.148438 "/></g></g></g><g fill="#000000" fill-opacity="1"><g transform="translate(152.988423, 204.93366)"><g><path d="M 7.667969 -0.875 C 12.804688 -1.464844 16.609375 -6.660156 18.832031 -12.851562 L 19.121094 -12.886719 C 18.9375 -6.78125 21.558594 -2.464844 26.550781 -3.035156 C 34.578125 -3.953125 37.269531 -15.691406 40.042969 -22.824219 C 40.609375 -24.28125 37.46875 -26.121094 36.582031 -24.261719 C 35.398438 -21.78125 33.75 -20.199219 31.289062 -19.917969 C 28.105469 -19.554688 26.980469 -22.359375 28.835938 -27.921875 C 29.945312 -32.296875 31.570312 -34.757812 31.257812 -37.503906 C 31.074219 -39.097656 30.300781 -40.105469 28.417969 -39.890625 C 25.019531 -39.503906 24.828125 -36.695312 22.441406 -36.421875 C 20.558594 -36.207031 20.535156 -38.992188 14.746094 -38.328125 C 2.304688 -36.90625 -2.179688 -21.003906 -1.03125 -10.949219 C -0.296875 -4.511719 2.75 -0.3125 7.667969 -0.875 Z M 13.191406 -16.679688 C 10.949219 -16.421875 9.410156 -17.710938 9.128906 -20.171875 C 8.761719 -23.355469 10.746094 -27.171875 14.507812 -27.601562 C 16.820312 -27.867188 18.433594 -26.585938 18.707031 -24.199219 C 19.054688 -21.160156 16.953125 -17.109375 13.191406 -16.679688 Z M 13.191406 -16.679688 "/></g></g></g><g fill="#000000" fill-opacity="1"><g transform="translate(190.165454, 200.684129)"><g><path d="M 6.148438 -0.703125 C 15.914062 -1.820312 19.230469 -16.414062 21.089844 -20.660156 C 21.730469 -22.125 18.585938 -23.964844 17.628906 -22.097656 C 16.375 -19.605469 14.722656 -18.027344 12.191406 -17.738281 C 7.851562 -17.242188 7.957031 -21.429688 8.707031 -25.765625 C 9.675781 -32.035156 11.738281 -39.011719 14.796875 -47.496094 C 16.519531 -52.308594 15.25 -54.4375 12.285156 -54.097656 C 6.425781 -53.429688 4.363281 -41.980469 -0.53125 -20.019531 C -1.503906 -15.730469 -1.996094 -11.058594 -1.574219 -7.367188 C -1.085938 -3.101562 1.011719 -0.117188 6.148438 -0.703125 Z M 6.148438 -0.703125 "/></g></g></g><g fill="#000000" fill-opacity="1"><g transform="translate(208.392328, 198.600701)"><g><path d="M 10.066406 -40.800781 C 13.828125 -41.230469 16.628906 -43.015625 16.550781 -47.550781 C 16.398438 -52.078125 13.277344 -53.113281 9.585938 -52.691406 C 5.609375 -52.234375 2.527344 -50.34375 3.113281 -45.207031 C 3.550781 -41.375 6.59375 -40.402344 10.066406 -40.800781 Z M 6.511719 -0.746094 C 15.84375 -1.8125 18.851562 -16.519531 20.71875 -20.691406 C 21.296875 -22.074219 18.226562 -23.921875 17.265625 -22.054688 C 16.066406 -19.71875 14.859375 -18.113281 12.6875 -17.867188 C 10.734375 -17.644531 9.292969 -18.722656 9.019531 -21.113281 C 8.574219 -25.019531 11.28125 -30.164062 10.777344 -34.578125 C 10.515625 -36.894531 9.464844 -37.726562 7.945312 -37.550781 C 3.824219 -37.082031 1.527344 -30.882812 -0.601562 -20.011719 C -1.289062 -16.414062 -1.566406 -12.425781 -1.179688 -9.027344 C -0.597656 -3.960938 1.664062 -0.191406 6.511719 -0.746094 Z M 6.511719 -0.746094 "/></g></g></g><g fill="#000000" fill-opacity="1"><g transform="translate(226.185235, 196.566877)"><g><path d="M 7.304688 -0.835938 C 17.722656 -2.027344 21.707031 -16.550781 23.40625 -20.925781 C 23.972656 -22.382812 20.910156 -24.15625 19.941406 -22.359375 C 18.753906 -19.953125 16.59375 -18.3125 13.703125 -17.984375 C 9.433594 -17.496094 6.828125 -20.421875 7.765625 -25.660156 C 8.585938 -30.664062 9.003906 -30.855469 15.734375 -31.625 C 18.625 -31.957031 18.734375 -38.710938 16.78125 -38.488281 L 13.019531 -38.058594 C 11.644531 -37.902344 11.722656 -39.15625 12.542969 -41.59375 C 14.261719 -46.410156 13.066406 -48.542969 10.390625 -48.238281 C 8.582031 -48.03125 7.0625 -47.199219 5.808594 -42.804688 C 5.09375 -40.082031 3.109375 -36.925781 -1.089844 -36.445312 C -2.75 -36.253906 -2.042969 -30.695312 2.152344 -31.171875 C 0.914062 -25.976562 -0.1875 -21.523438 -1.003906 -17.765625 C -3.203125 -8.136719 -0.796875 0.0898438 7.304688 -0.835938 Z M 7.304688 -0.835938 "/></g></g></g><g fill="#000000" fill-opacity="1"><g transform="translate(246.726641, 194.218886)"><g><path d="M 35.351562 -24.121094 C 33.601562 -20.84375 31.226562 -17.273438 29.054688 -17.027344 C 27.390625 -16.835938 25.859375 -18.054688 26.554688 -22.238281 C 28.179688 -29.824219 30 -33.769531 29.652344 -36.808594 C 29.386719 -39.125 28.128906 -39.859375 26.03125 -39.621094 C 22.34375 -39.199219 19.964844 -33.722656 18.082031 -23.90625 C 17.3125 -20.375 15.726562 -18.214844 12.542969 -17.851562 C 10.15625 -17.578125 9.363281 -18.734375 9.132812 -20.757812 C 8.644531 -25.027344 11.347656 -30.246094 10.808594 -34.949219 C 10.59375 -36.828125 9.828125 -37.765625 8.234375 -37.585938 C 4.183594 -37.121094 1.519531 -30.953125 -0.601562 -20.011719 C -1.511719 -15.144531 -1.167969 -10.859375 -0.921875 -8.6875 C -0.292969 -3.191406 3.246094 -1.105469 7.152344 -1.550781 C 11.855469 -2.085938 15.058594 -5.460938 16.457031 -10.527344 C 16.976562 -12.421875 18.464844 -12.222656 18.5 -10.617188 C 18.507812 -3.507812 13.832031 3.035156 7.472656 3.835938 C 2.996094 4.421875 0.03125 2.195312 -0.742188 -1.378906 C -1.054688 -2.8125 -5.828125 0.960938 -4.984375 8.339844 C -4.1875 15.28125 0.640625 19.054688 8.308594 18.179688 C 16.335938 17.261719 20.691406 11.121094 23.617188 -4.3125 C 24.3125 -3.367188 25.246094 -2.886719 26.332031 -3.011719 C 33.351562 -3.8125 35.628906 -13.378906 38.8125 -22.683594 C 39.417969 -24.441406 36.078125 -25.449219 35.351562 -24.121094 Z M 35.351562 -24.121094 "/></g></g></g><g clip-path="url(#b74f2ac085)"><g clip-path="url(#cce297db57)"><g clip-path="url(#b45838e1f3)"><g clip-path="url(#8b4da64abf)"><path fill="#000000" d="M 105.902344 229.953125 C 95.472656 230.988281 83.828125 230.316406 75.882812 222.515625 C 75.210938 221.96875 73.714844 220.40625 74.765625 220.660156 C 76.109375 221.265625 77.695312 222.660156 79.152344 222.835938 C 84.910156 224.136719 90.910156 223.453125 96.71875 222.855469 C 114.585938 220.308594 132.121094 215.832031 149.976562 213.140625 C 159.195312 211.808594 168.5 209.972656 177.832031 210.015625 C 181.332031 211.214844 184.335938 213.894531 186.789062 216.640625 C 188.765625 218.820312 186.09375 218.707031 184.484375 219.007812 C 181.1875 219.476562 177.863281 219.765625 174.550781 220.125 C 151.511719 222.261719 128.875 227.339844 105.902344 229.953125 Z M 105.902344 229.953125 " fill-opacity="1" fill-rule="nonzero"/></g></g></g></g><g fill="#000000" fill-opacity="1"><g transform="translate(220.999187, 228.370794)"><g><path d="M 15.753906 -6.964844 C 15.460938 -6.382812 14.871094 -6.089844 14.3125 -6.027344 C 13.605469 -5.945312 13.300781 -6.460938 13.214844 -7.222656 C 13.132812 -7.929688 13.289062 -8.890625 13.421875 -9.699219 C 13.714844 -11.28125 14.113281 -11.929688 14.484375 -11.972656 C 14.746094 -12.019531 14.953125 -11.835938 15.195312 -11.863281 C 15.976562 -11.953125 16.480469 -13.011719 16.363281 -14.203125 C 16.246094 -15.230469 15.539062 -15.960938 14.238281 -15.8125 C 12.1875 -15.578125 9.902344 -13.941406 7.652344 -8.515625 C 7.519531 -8.195312 7.382812 -7.898438 7.246094 -7.597656 C 6.492188 -8.097656 6.050781 -8.839844 5.941406 -9.789062 C 5.785156 -11.148438 6.585938 -11.601562 7.320312 -11.609375 C 7.601562 -11.601562 7.730469 -11.824219 7.679688 -12.101562 C 7.578125 -12.976562 6.84375 -13.78125 5.429688 -13.617188 C 3.847656 -13.4375 2.554688 -12.195312 2.777344 -10.242188 C 2.988281 -8.378906 4.363281 -6.914062 6.390625 -6.164062 C 5.664062 -5.097656 4.746094 -4.371094 3.59375 -4.238281 C 2.566406 -4.121094 1.703125 -4.589844 1.609375 -5.410156 C 1.59375 -5.539062 1.453125 -5.617188 1.304688 -5.601562 C -0.183594 -5.433594 -1 -3.8125 -0.828125 -2.285156 C -0.648438 -0.738281 0.554688 0.730469 3.105469 0.4375 C 5.117188 0.210938 6.769531 -2.015625 7.804688 -4.378906 C 7.980469 -4.796875 8.15625 -5.25 8.335938 -5.667969 C 9.0625 -5.578125 9.839844 -5.554688 10.644531 -5.609375 C 10.617188 -5.019531 10.621094 -4.492188 10.671875 -4.027344 C 10.847656 -2.5 11.472656 -1.308594 12.796875 -1.457031 C 15.3125 -1.746094 16.167969 -5.503906 16.644531 -6.59375 C 16.808594 -6.972656 16 -7.445312 15.753906 -6.964844 Z M 10.78125 -6.90625 C 10.066406 -6.863281 9.421875 -6.886719 8.863281 -6.992188 C 9.398438 -8.277344 9.933594 -9.527344 10.570312 -10.582031 C 11.035156 -11.277344 11.246094 -11.433594 11.488281 -11.460938 C 11.617188 -11.476562 11.71875 -11.410156 11.742188 -11.226562 C 11.828125 -10.460938 11.226562 -9.601562 10.78125 -6.90625 Z M 10.78125 -6.90625 "/></g></g></g><g fill="#000000" fill-opacity="1"><g transform="translate(236.904537, 226.558609)"><g><path d="M 7.074219 -5.976562 C 6.765625 -5.375 6.421875 -4.921875 5.863281 -4.839844 C 5.492188 -5.964844 4.332031 -7.34375 4.292969 -7.695312 C 4.207031 -8.441406 5.5625 -8.652344 5.476562 -9.246094 C 5.425781 -9.84375 4.789062 -10.453125 3.636719 -10.320312 C 2.035156 -10.136719 1.027344 -7.210938 -0.0898438 -5.273438 L -0.152344 -5.152344 C -1.058594 -3.164062 -0.300781 0.015625 2.976562 -0.359375 C 6.441406 -0.753906 7.566406 -4.464844 7.964844 -5.605469 C 8.09375 -5.980469 7.320312 -6.457031 7.074219 -5.976562 Z M 1.871094 -4.117188 C 1.253906 -4.050781 0.789062 -4.335938 0.738281 -4.78125 C 1.105469 -5.371094 1.59375 -6.199219 1.984375 -6.941406 C 2.121094 -7.203125 2.273438 -7.222656 2.429688 -6.992188 C 2.746094 -6.519531 2.949219 -6.070312 3 -5.625 C 3.085938 -4.863281 2.691406 -4.210938 1.871094 -4.117188 Z M 1.871094 -4.117188 "/></g></g></g><g fill="#000000" fill-opacity="1"><g transform="translate(244.112231, 225.737396)"><g><path d="M 7.074219 -5.976562 C 6.765625 -5.375 6.421875 -4.921875 5.863281 -4.839844 C 5.492188 -5.964844 4.332031 -7.34375 4.292969 -7.695312 C 4.207031 -8.441406 5.5625 -8.652344 5.476562 -9.246094 C 5.425781 -9.84375 4.789062 -10.453125 3.636719 -10.320312 C 2.035156 -10.136719 1.027344 -7.210938 -0.0898438 -5.273438 L -0.152344 -5.152344 C -1.058594 -3.164062 -0.300781 0.015625 2.976562 -0.359375 C 6.441406 -0.753906 7.566406 -4.464844 7.964844 -5.605469 C 8.09375 -5.980469 7.320312 -6.457031 7.074219 -5.976562 Z M 1.871094 -4.117188 C 1.253906 -4.050781 0.789062 -4.335938 0.738281 -4.78125 C 1.105469 -5.371094 1.59375 -6.199219 1.984375 -6.941406 C 2.121094 -7.203125 2.273438 -7.222656 2.429688 -6.992188 C 2.746094 -6.519531 2.949219 -6.070312 3 -5.625 C 3.085938 -4.863281 2.691406 -4.210938 1.871094 -4.117188 Z M 1.871094 -4.117188 "/></g></g></g><g fill="#000000" fill-opacity="1"><g transform="translate(251.319924, 224.916183)"><g><path d="M 9.160156 -6.214844 C 8.851562 -5.613281 8.542969 -5.179688 7.984375 -5.117188 C 7.480469 -5.058594 6.996094 -5.324219 6.917969 -6.035156 C 6.808594 -6.964844 7.488281 -8.476562 7.367188 -9.519531 C 7.308594 -10.058594 7.078125 -10.242188 6.707031 -10.199219 C 5.757812 -10.089844 5.144531 -8.679688 4.65625 -6.152344 L 4.648438 -6.078125 C 4.4375 -5.109375 3.902344 -4.671875 3.230469 -4.59375 C 2.617188 -4.523438 2.414062 -4.820312 2.355469 -5.34375 C 2.226562 -6.441406 2.925781 -7.785156 2.785156 -8.996094 C 2.730469 -9.480469 2.535156 -9.722656 2.125 -9.675781 C 1.082031 -9.558594 0.394531 -7.96875 -0.152344 -5.152344 C -0.386719 -3.898438 -0.300781 -2.796875 -0.234375 -2.238281 C -0.0625 -0.710938 0.648438 -0.09375 1.65625 -0.207031 C 3.109375 -0.371094 3.875 -1.933594 4.339844 -3.324219 C 4.332031 -3.039062 4.34375 -2.796875 4.371094 -2.554688 C 4.519531 -1.230469 5.105469 -0.582031 6.203125 -0.707031 C 8.71875 -0.992188 9.570312 -4.75 10.050781 -5.84375 C 10.214844 -6.222656 9.40625 -6.695312 9.160156 -6.214844 Z M 9.160156 -6.214844 "/></g></g></g><g fill="#000000" fill-opacity="1"><g transform="translate(260.632192, 223.855184)"><g><path d="M 7.203125 -5.992188 C 6.894531 -5.390625 6.585938 -4.957031 6.027344 -4.894531 C 5.1875 -4.800781 4.828125 -5.152344 4.769531 -5.675781 C 4.636719 -6.832031 5.347656 -7.703125 5.226562 -8.765625 C 5.113281 -9.773438 3.1875 -10.761719 1.4375 -10.558594 C 0.433594 -10.445312 -0.117188 -9.457031 -0.0273438 -8.695312 C 0.046875 -8.023438 0.316406 -7.808594 0.707031 -7.722656 C 0.484375 -6.828125 0.144531 -5.695312 -0.152344 -5.152344 C -0.355469 -4.769531 0.550781 -4.269531 0.738281 -4.78125 C 0.964844 -5.429688 1.4375 -6.769531 1.6875 -7.550781 C 2.464844 -7.355469 2.757812 -6.917969 2.78125 -6.730469 C 2.882812 -5.839844 1.777344 -3.9375 1.976562 -2.207031 C 2.082031 -1.257812 2.71875 -0.308594 4.246094 -0.484375 C 6.761719 -0.769531 7.617188 -4.527344 8.097656 -5.621094 C 8.261719 -5.996094 7.453125 -6.472656 7.203125 -5.992188 Z M 7.203125 -5.992188 "/></g></g></g><g fill="#000000" fill-opacity="1"><g transform="translate(267.988882, 223.016995)"><g><path d="M 1.972656 -0.226562 C 3.296875 -0.375 4.277344 -1.714844 4.851562 -3.308594 L 4.925781 -3.316406 C 4.875 -1.746094 5.550781 -0.632812 6.835938 -0.777344 C 8.902344 -1.015625 9.597656 -4.035156 10.3125 -5.875 C 10.457031 -6.25 9.648438 -6.722656 9.421875 -6.242188 C 9.117188 -5.605469 8.691406 -5.199219 8.058594 -5.125 C 7.238281 -5.03125 6.949219 -5.753906 7.425781 -7.1875 C 7.714844 -8.3125 8.132812 -8.945312 8.050781 -9.652344 C 8.003906 -10.0625 7.804688 -10.324219 7.320312 -10.269531 C 6.445312 -10.167969 6.394531 -9.445312 5.78125 -9.375 C 5.296875 -9.320312 5.289062 -10.035156 3.800781 -9.867188 C 0.597656 -9.503906 -0.558594 -5.40625 -0.265625 -2.820312 C -0.0742188 -1.160156 0.707031 -0.0820312 1.972656 -0.226562 Z M 3.398438 -4.292969 C 2.820312 -4.226562 2.425781 -4.558594 2.351562 -5.191406 C 2.257812 -6.011719 2.769531 -6.996094 3.738281 -7.105469 C 4.332031 -7.171875 4.75 -6.84375 4.820312 -6.226562 C 4.90625 -5.445312 4.367188 -4.402344 3.398438 -4.292969 Z M 3.398438 -4.292969 "/></g></g></g><g fill="#000000" fill-opacity="1"><g transform="translate(277.561889, 221.926289)"><g><path d="M 1.171875 -0.132812 C 2.457031 -0.28125 2.585938 -1.332031 2.476562 -2.28125 L 2.378906 -3.121094 C 2.191406 -4.777344 2.945312 -6.429688 4.027344 -6.554688 C 4.457031 -6.601562 4.761719 -6.410156 4.808594 -5.980469 C 4.894531 -5.21875 4.257812 -3.882812 4.417969 -2.464844 C 4.535156 -1.421875 5.046875 -0.574219 6.222656 -0.707031 C 8.734375 -0.996094 9.589844 -4.753906 10.070312 -5.84375 C 10.234375 -6.222656 9.425781 -6.695312 9.179688 -6.214844 C 8.871094 -5.613281 8.5625 -5.183594 8 -5.121094 C 7.386719 -5.050781 7.074219 -5.316406 7 -5.949219 C 6.894531 -6.878906 7.421875 -7.542969 7.3125 -8.53125 C 7.207031 -9.460938 6.574219 -10.183594 5.441406 -10.054688 C 4.621094 -9.960938 3.917969 -9.484375 3.308594 -8.734375 C 2.777344 -8.070312 2.378906 -8.253906 2.296875 -8.980469 C 2.253906 -9.351562 2.105469 -9.675781 1.601562 -9.617188 C 0.914062 -9.539062 0.214844 -7.402344 -0.152344 -5.152344 C -0.40625 -3.578125 -0.441406 -2.214844 -0.339844 -1.339844 C -0.253906 -0.554688 0.296875 -0.0351562 1.171875 -0.132812 Z M 1.171875 -0.132812 "/></g></g></g><g fill="#000000" fill-opacity="1"><g transform="translate(286.892778, 220.863168)"><g><path d="M 3.277344 -0.375 C 5.457031 -0.621094 7.269531 -2.449219 8.5625 -5.671875 C 8.726562 -6.050781 7.917969 -6.523438 7.671875 -6.042969 C 6.207031 -3.3125 2.519531 -3.042969 2.238281 -5.539062 C 2.132812 -6.46875 2.515625 -7.398438 3.355469 -7.496094 C 3.914062 -7.558594 4.152344 -7.265625 4.191406 -6.929688 C 4.269531 -6.261719 3.847656 -6.136719 3.882812 -5.820312 C 3.910156 -5.578125 4.261719 -5.335938 4.914062 -5.410156 C 5.714844 -5.5 6.738281 -6.257812 6.558594 -7.859375 C 6.417969 -9.070312 5.515625 -10.0625 3.726562 -9.859375 C 0.78125 -9.523438 -0.65625 -6.246094 -0.359375 -3.636719 C -0.136719 -1.703125 1.042969 -0.117188 3.277344 -0.375 Z M 3.277344 -0.375 "/></g></g></g><g fill="#000000" fill-opacity="1"><g transform="translate(294.715082, 219.971929)"><g><path d="M 3.5 -0.398438 C 5.664062 -0.644531 7.453125 -2.472656 8.746094 -5.695312 C 8.914062 -6.070312 8.105469 -6.546875 7.855469 -6.066406 C 7.164062 -4.683594 5.730469 -3.859375 4.464844 -3.714844 C 3.402344 -3.59375 2.488281 -3.832031 2.414062 -4.484375 C 2.386719 -4.726562 2.566406 -4.800781 2.707031 -4.742188 C 3.160156 -4.550781 3.671875 -4.550781 4.191406 -4.609375 C 6.015625 -4.816406 7.015625 -6.480469 6.863281 -7.839844 C 6.722656 -9.066406 5.832031 -10.097656 4.097656 -9.902344 C -1.246094 -9.292969 -1.730469 0.199219 3.5 -0.398438 Z M 3.546875 -5.953125 C 2.953125 -5.882812 2.632812 -6.207031 2.585938 -6.617188 C 2.527344 -7.117188 2.914062 -7.710938 3.640625 -7.792969 C 4.21875 -7.859375 4.539062 -7.535156 4.585938 -7.125 C 4.636719 -6.660156 4.273438 -6.035156 3.546875 -5.953125 Z M 3.546875 -5.953125 "/></g></g></g></svg>