<svg xmlns="http://www.w3.org/2000/svg" xmlns:xlink="http://www.w3.org/1999/xlink" width="500" zoomAndPan="magnify" viewBox="0 0 375 374.999991" height="500" preserveAspectRatio="xMidYMid meet" version="1.0"><defs><g/></defs><g fill="#292929" fill-opacity="1"><g transform="translate(93.127553, 216.21809)"><g><path d="M 0.9375 0 L 33.863281 0 C 50.796875 0 61.347656 -5.019531 61.347656 -20.335938 C 61.347656 -25.949219 59.132812 -31.652344 54.027344 -35.566406 L 33.863281 -35.566406 C 40.757812 -33.863281 41.179688 -22.292969 32.078125 -22.292969 C 20.929688 -22.292969 22.039062 -37.011719 32.164062 -37.011719 L 60.921875 -37.011719 L 60.921875 -59.558594 L 28.929688 -59.558594 C 9.785156 -59.558594 0.851562 -53.09375 0.851562 -37.949219 C 0.851562 -32.84375 2.296875 -27.484375 6.125 -23.824219 L 12.421875 -23.824219 L 13.359375 -22.378906 L 0.9375 -22.378906 Z M 0.9375 0 "/></g></g></g><g fill="#292929" fill-opacity="1"><g transform="translate(154.81217, 216.21809)"><g><path d="M 22.972656 -39.820312 L 51.304688 -39.820312 L 51.304688 -59.558594 L 0.851562 -59.558594 L 0.851562 0 L 51.304688 0 L 51.304688 -19.738281 L 22.972656 -19.738281 L 22.972656 -21.269531 L 51.304688 -21.269531 L 51.304688 -38.289062 L 22.972656 -38.289062 Z M 22.972656 -39.820312 "/></g></g></g><g fill="#292929" fill-opacity="1"><g transform="translate(206.967589, 216.21809)"><g><path d="M 33.4375 1.703125 C 51.390625 1.703125 65.941406 -12.421875 65.941406 -29.78125 C 65.941406 -47.136719 51.390625 -61.261719 33.4375 -61.261719 C 15.484375 -61.261719 0.851562 -47.136719 0.851562 -29.78125 C 0.851562 -12.421875 15.484375 1.703125 33.4375 1.703125 Z M 24.929688 -29.78125 C 24.929688 -34.460938 28.671875 -38.289062 33.351562 -38.289062 C 38.03125 -38.289062 41.863281 -34.460938 41.863281 -29.78125 C 41.863281 -25.101562 38.03125 -21.355469 33.351562 -21.355469 C 28.671875 -21.355469 24.929688 -25.101562 24.929688 -29.78125 Z M 24.929688 -29.78125 "/></g></g></g><g fill="#292929" fill-opacity="1"><g transform="translate(273.842215, 216.21809)"><g><path d="M 2.128906 -1.871094 C 2.128906 -0.851562 2.976562 0 4 0 C 5.019531 0 5.871094 -0.851562 5.871094 -1.871094 C 5.871094 -2.894531 5.019531 -3.742188 4 -3.742188 C 2.976562 -3.742188 2.128906 -2.894531 2.128906 -1.871094 Z M 2.128906 -1.871094 "/></g></g></g></svg>