<svg xmlns="http://www.w3.org/2000/svg" xmlns:xlink="http://www.w3.org/1999/xlink" width="500" zoomAndPan="magnify" viewBox="0 0 375 374.999991" height="500" preserveAspectRatio="xMidYMid meet" version="1.0"><defs><g/><clipPath id="1f1cb1b7b5"><path d="M 121.226562 138.265625 L 270.949219 138.265625 L 270.949219 182.515625 L 121.226562 182.515625 Z M 121.226562 138.265625 " clip-rule="nonzero"/></clipPath></defs><g fill="#2b2b2b" fill-opacity="1"><g transform="translate(40.785861, 212.558983)"><g><path d="M 3.449219 -33.261719 C 3.449219 -33.261719 4.1875 -36.054688 7.308594 -39.421875 C 10.429688 -42.707031 13.550781 -43.28125 13.550781 -43.28125 L 3.449219 -43.28125 Z M 14.867188 0 L 25.050781 0 L 25.050781 -43.28125 L 14.867188 -43.28125 Z M 36.464844 -33.261719 L 36.464844 -43.28125 L 26.363281 -43.28125 C 26.363281 -43.28125 29.484375 -42.707031 32.605469 -39.421875 C 35.726562 -36.054688 36.464844 -33.261719 36.464844 -33.261719 Z M 36.464844 -33.261719 "/></g></g></g><g fill="#2b2b2b" fill-opacity="1"><g transform="translate(77.413045, 212.558983)"><g><path d="M 24.554688 -18.152344 C 27.347656 -18.152344 29.566406 -20.367188 29.566406 -23.160156 C 29.566406 -25.871094 27.347656 -28.089844 24.554688 -28.089844 C 21.847656 -28.089844 19.546875 -25.871094 19.546875 -23.160156 C 19.546875 -20.367188 21.847656 -18.152344 24.554688 -18.152344 Z M 14.699219 0.984375 L 19.957031 -9.691406 L 10.839844 -27.347656 L 0.65625 -27.347656 Z M 5.667969 16.015625 C 8.460938 16.015625 10.675781 13.714844 10.675781 11.003906 C 10.675781 8.214844 8.460938 5.996094 5.667969 5.996094 C 2.957031 5.996094 0.65625 8.214844 0.65625 11.003906 C 0.65625 13.714844 2.957031 16.015625 5.667969 16.015625 Z M 5.667969 16.015625 "/></g></g></g><g fill="#2b2b2b" fill-opacity="1"><g transform="translate(104.349572, 212.558983)"><g><path d="M 18.808594 0.820312 C 25.953125 -0.246094 31.292969 -6.40625 31.292969 -13.632812 C 31.292969 -13.632812 31.292969 -13.796875 31.292969 -13.878906 C 31.292969 -21.1875 25.953125 -27.347656 18.808594 -28.335938 C 21.023438 -27.019531 22.339844 -23.078125 22.339844 -13.46875 C 22.339844 -4.105469 20.941406 -0.492188 18.808594 0.820312 Z M 3.449219 15.933594 L 13.632812 15.933594 L 13.632812 -27.347656 L 3.449219 -27.347656 Z M 3.449219 15.933594 "/></g></g></g><g fill="#2b2b2b" fill-opacity="1"><g transform="translate(134.160447, 212.558983)"><g><path d="M 14.207031 0.984375 C 13.632812 0.574219 12.402344 -0.820312 12.402344 -4.84375 L 12.402344 -22.257812 C 12.402344 -26.28125 13.632812 -27.675781 14.207031 -28.089844 C 7.0625 -27.101562 1.726562 -20.941406 1.726562 -13.714844 C 1.726562 -13.714844 1.726562 -13.632812 1.726562 -13.632812 L 1.726562 -13.386719 C 1.726562 -6.160156 7.0625 0 14.207031 0.984375 Z M 18.234375 0.984375 C 25.460938 0 30.714844 -6.160156 30.714844 -13.386719 C 30.714844 -13.386719 30.714844 -13.46875 30.714844 -13.46875 L 30.714844 -13.714844 C 30.714844 -20.941406 25.460938 -27.101562 18.234375 -28.089844 C 18.972656 -27.675781 20.121094 -26.28125 20.121094 -22.257812 L 20.121094 -4.84375 C 20.121094 -0.820312 18.972656 0.574219 18.234375 0.984375 Z M 18.234375 0.984375 "/></g></g></g><g fill="#2b2b2b" fill-opacity="1"><g transform="translate(163.396448, 212.558983)"><g><path d="M 24.804688 -28.910156 C 27.511719 -28.910156 29.730469 -31.210938 29.730469 -33.917969 C 29.730469 -36.710938 27.511719 -38.929688 24.804688 -38.929688 C 22.011719 -38.929688 19.792969 -36.710938 19.792969 -33.917969 C 19.792969 -31.210938 22.011719 -28.910156 24.804688 -28.910156 Z M 14.535156 -9.363281 C 14.042969 -9.609375 12.976562 -10.511719 12.976562 -13.140625 L 12.976562 -24.308594 C 12.976562 -26.9375 14.042969 -27.839844 14.535156 -28.089844 C 8.296875 -27.511719 3.695312 -23.488281 3.695312 -18.890625 L 3.695312 -18.5625 C 3.695312 -14.042969 8.296875 -10.019531 14.535156 -9.363281 Z M 18.070312 -9.363281 C 24.226562 -10.019531 28.828125 -14.042969 28.828125 -18.5625 L 28.828125 -18.890625 C 28.828125 -23.488281 24.226562 -27.511719 18.070312 -28.089844 C 18.644531 -27.839844 19.628906 -26.9375 19.628906 -24.308594 L 19.628906 -13.140625 C 19.628906 -10.511719 18.644531 -9.609375 18.070312 -9.363281 Z M 29.8125 3.367188 C 29.8125 -0.164062 28.417969 -2.464844 26.117188 -4.105469 C 23.652344 -5.75 20.121094 -6.488281 16.015625 -6.816406 C 12.074219 -7.144531 7.800781 -7.390625 5.996094 -8.789062 C 5.175781 -9.445312 4.84375 -10.265625 5.175781 -11.5 C 5.175781 -11.5 2.464844 -9.609375 2.464844 -6.570312 C 2.464844 -4.1875 3.53125 -2.628906 5.175781 -1.394531 C 7.636719 0.410156 11.582031 1.148438 15.277344 1.644531 C 18.316406 1.972656 21.1875 2.628906 23.160156 3.859375 C 24.640625 4.929688 25.542969 6.324219 25.542969 8.542969 C 25.542969 12.074219 21.929688 13.386719 21.683594 13.46875 C 22.011719 13.386719 29.8125 10.511719 29.8125 3.367188 Z M 9.117188 0.820312 C 9.117188 0.820312 2.464844 1.230469 2.300781 6.652344 L 2.300781 6.734375 C 2.464844 12.074219 9.117188 13.222656 9.117188 13.222656 C 7.71875 12.566406 6.40625 11.085938 6.40625 6.980469 C 6.40625 2.875 7.71875 1.394531 9.117188 0.820312 Z M 9.117188 0.820312 "/></g></g></g><g fill="#2b2b2b" fill-opacity="1"><g transform="translate(191.81121, 212.558983)"><g><path d="M 21.023438 -18.152344 C 23.734375 -18.152344 25.953125 -20.367188 25.953125 -23.160156 C 25.953125 -25.871094 23.734375 -28.089844 21.023438 -28.089844 C 18.234375 -28.089844 16.015625 -25.871094 16.015625 -23.160156 C 16.015625 -20.367188 18.234375 -18.152344 21.023438 -18.152344 Z M 3.449219 0 L 13.632812 0 L 13.632812 -27.347656 L 3.449219 -27.347656 Z M 3.449219 0 "/></g></g></g><g fill="#2b2b2b" fill-opacity="1"><g transform="translate(215.709137, 212.558983)"><g><path d="M 17.738281 0 L 27.839844 0 L 27.839844 -18.152344 C 27.839844 -24.144531 22.257812 -29.894531 12.15625 -27.59375 C 12.15625 -27.59375 17.738281 -26.691406 17.738281 -21.4375 Z M 8.046875 -16.425781 C 10.757812 -16.425781 13.058594 -18.644531 13.058594 -21.4375 C 13.058594 -24.144531 10.757812 -26.363281 8.046875 -26.363281 C 5.257812 -26.363281 3.039062 -24.144531 3.039062 -21.4375 C 3.039062 -18.644531 5.257812 -16.425781 8.046875 -16.425781 Z M 10.757812 0.738281 C 12.402344 0.410156 14.535156 -0.246094 15.851562 -1.394531 C 13.386719 -0.902344 11.003906 -2.464844 10.347656 -4.84375 C 9.363281 -8.542969 11.828125 -12.8125 13.878906 -14.535156 C 12.402344 -14.535156 11.085938 -14.453125 9.691406 -14.042969 C 6.980469 -13.140625 4.351562 -11.5 3.039062 -8.953125 C 1.558594 -6.40625 1.808594 -2.875 3.941406 -0.65625 C 5.667969 1.148438 8.378906 1.230469 10.757812 0.738281 Z M 10.757812 0.738281 "/></g></g></g><g fill="#2b2b2b" fill-opacity="1"><g transform="translate(243.302652, 212.558983)"><g><path d="M 18.808594 0.820312 C 25.953125 -0.246094 31.292969 -6.40625 31.292969 -13.632812 C 31.292969 -13.632812 31.292969 -13.796875 31.292969 -13.878906 C 31.292969 -21.1875 25.953125 -27.347656 18.808594 -28.335938 C 21.023438 -27.019531 22.339844 -23.078125 22.339844 -13.46875 C 22.339844 -4.105469 20.941406 -0.492188 18.808594 0.820312 Z M 3.449219 15.933594 L 13.632812 15.933594 L 13.632812 -27.347656 L 3.449219 -27.347656 Z M 3.449219 15.933594 "/></g></g></g><g fill="#2b2b2b" fill-opacity="1"><g transform="translate(273.11352, 212.558983)"><g><path d="M 3.449219 0 L 13.632812 0 L 13.632812 -43.28125 L 3.449219 -43.28125 Z M 21.683594 0 L 31.785156 0 L 31.785156 -18.152344 C 31.785156 -26.117188 25.789062 -31.042969 16.671875 -26.199219 C 16.671875 -26.199219 21.683594 -26.691406 21.683594 -21.4375 Z M 21.683594 0 "/></g></g></g><g fill="#2b2b2b" fill-opacity="1"><g transform="translate(304.566867, 212.558983)"><g><path d="M 24.554688 -18.152344 C 27.347656 -18.152344 29.566406 -20.367188 29.566406 -23.160156 C 29.566406 -25.871094 27.347656 -28.089844 24.554688 -28.089844 C 21.847656 -28.089844 19.546875 -25.871094 19.546875 -23.160156 C 19.546875 -20.367188 21.847656 -18.152344 24.554688 -18.152344 Z M 14.699219 0.984375 L 19.957031 -9.691406 L 10.839844 -27.347656 L 0.65625 -27.347656 Z M 5.667969 16.015625 C 8.460938 16.015625 10.675781 13.714844 10.675781 11.003906 C 10.675781 8.214844 8.460938 5.996094 5.667969 5.996094 C 2.957031 5.996094 0.65625 8.214844 0.65625 11.003906 C 0.65625 13.714844 2.957031 16.015625 5.667969 16.015625 Z M 5.667969 16.015625 "/></g></g></g><g clip-path="url(#1f1cb1b7b5)"><path fill="#2b2b2b" d="M 270.949219 145.664062 C 270.949219 145.199219 270.570312 144.902344 270.191406 144.902344 C 268.691406 144.902344 267.085938 155.539062 245.933594 155.539062 C 215.816406 155.539062 191.648438 138.265625 166.78125 138.265625 C 145.515625 138.265625 121.226562 153.378906 121.226562 176.054688 C 121.226562 178.207031 121.453125 180.421875 121.925781 182.691406 C 121.890625 182.523438 121.875 182.351562 121.875 182.175781 C 121.875 179.507812 135.476562 156.75 168.375 156.75 C 194.117188 156.75 210.515625 165.015625 234.398438 165.015625 C 255.980469 165.015625 270.949219 153.863281 270.949219 145.664062 " fill-opacity="1" fill-rule="nonzero"/></g></svg>