<svg xmlns="http://www.w3.org/2000/svg" xmlns:xlink="http://www.w3.org/1999/xlink" width="500" zoomAndPan="magnify" viewBox="0 0 375 374.999991" height="500" preserveAspectRatio="xMidYMid meet" version="1.0"><defs><g/></defs><g fill="#2b2b2b" fill-opacity="1"><g transform="translate(89.407685, 215.249986)"><g><path d="M 14.921875 -2.207031 C 23.433594 2.207031 38.667969 -0.316406 44.867188 -7.671875 C 52.746094 -16.917969 52.117188 -35.410156 51.800781 -46.863281 C 51.90625 -51.277344 52.011719 -57.371094 48.335938 -60.523438 C 43.710938 -64.410156 38.5625 -61.046875 36.988281 -56.003906 C 35.304688 -50.4375 37.511719 -42.765625 37.511719 -36.882812 C 37.511719 -31.101562 37.617188 -24.585938 34.988281 -19.230469 C 32.046875 -13.34375 26.898438 -14.921875 24.585938 -20.699219 C 22.171875 -26.898438 23.117188 -34.78125 23.222656 -41.292969 C 23.433594 -48.859375 25.21875 -65.882812 13.554688 -65.988281 C -1.261719 -65.988281 1.472656 -43.921875 2.523438 -34.78125 C 3.886719 -23.746094 3.46875 -8.089844 14.921875 -2.207031 Z M 14.921875 -2.207031 "/></g></g></g><g fill="#2b2b2b" fill-opacity="1"><g transform="translate(137.00425, 215.249986)"><g><path d="M 1.890625 -66.300781 C 6.199219 -51.800781 25.535156 -64.621094 22.171875 -75.234375 C 23.851562 -80.488281 14.605469 -82.484375 11.347656 -81.539062 C 5.253906 -79.855469 0.105469 -72.5 1.890625 -66.300781 Z M 15.65625 -1.472656 C 18.808594 -3.78125 19.230469 -7.671875 19.964844 -11.242188 C 22.277344 -23.011719 24.902344 -39.507812 19.648438 -50.855469 C 17.230469 -56.003906 11.136719 -59.578125 6.621094 -54.847656 C 3.363281 -51.382812 3.363281 -43.816406 2.941406 -39.507812 C 2.207031 -30.15625 -0.105469 -14.289062 3.992188 -5.464844 C 6.199219 -0.839844 11.03125 1.785156 15.65625 -1.472656 Z M 15.65625 -1.472656 "/></g></g></g><g fill="#2b2b2b" fill-opacity="1"><g transform="translate(155.28618, 215.249986)"><g><path d="M 1.574219 -4.097656 C 2.207031 7.777344 18.386719 -9.5625 20.699219 -11.980469 C 24.273438 -15.65625 27.632812 -19.542969 31.101562 -23.433594 C 33.519531 -26.058594 37.511719 -29.421875 36.882812 -33.414062 C 36.144531 -37.617188 30.996094 -38.140625 27.949219 -36.566406 C 24.0625 -34.675781 20.910156 -30.050781 18.074219 -27.003906 C 14.605469 -23.222656 11.136719 -19.4375 7.984375 -15.445312 C 5.882812 -12.609375 1.367188 -7.878906 1.574219 -4.097656 Z M 1.574219 -4.097656 "/></g></g></g><g fill="#2b2b2b" fill-opacity="1"><g transform="translate(187.857676, 215.249986)"><g><path d="M 14.921875 -2.207031 C 23.433594 2.207031 38.667969 -0.316406 44.867188 -7.671875 C 52.746094 -16.917969 52.117188 -35.410156 51.800781 -46.863281 C 51.90625 -51.277344 52.011719 -57.371094 48.335938 -60.523438 C 43.710938 -64.410156 38.5625 -61.046875 36.988281 -56.003906 C 35.304688 -50.4375 37.511719 -42.765625 37.511719 -36.882812 C 37.511719 -31.101562 37.617188 -24.585938 34.988281 -19.230469 C 32.046875 -13.34375 26.898438 -14.921875 24.585938 -20.699219 C 22.171875 -26.898438 23.117188 -34.78125 23.222656 -41.292969 C 23.433594 -48.859375 25.21875 -65.882812 13.554688 -65.988281 C -1.261719 -65.988281 1.472656 -43.921875 2.523438 -34.78125 C 3.886719 -23.746094 3.46875 -8.089844 14.921875 -2.207031 Z M 14.921875 -2.207031 "/></g></g></g><g fill="#2b2b2b" fill-opacity="1"><g transform="translate(235.454246, 215.249986)"><g><path d="M 41.609375 0 C 54.742188 0.210938 45.601562 -16.707031 42.976562 -22.277344 C 41.398438 -25.636719 38.246094 -29.421875 37.195312 -32.992188 C 35.09375 -34.675781 35.09375 -36.355469 37.089844 -37.933594 C 37.617188 -38.773438 38.140625 -39.613281 38.667969 -40.347656 C 41.714844 -45.183594 47.492188 -51.382812 47.492188 -57.371094 C 47.492188 -62.941406 43.394531 -66.300781 37.933594 -65.566406 C 31.101562 -64.621094 27.214844 -57.160156 24.0625 -51.90625 C 21.75 -56.636719 19.019531 -63.992188 13.449219 -65.882812 C 9.457031 -67.351562 4.9375 -65.671875 3.78125 -61.363281 C 2.523438 -56.320312 6.828125 -49.910156 9.140625 -45.8125 C 10.507812 -43.289062 14.289062 -38.984375 14.605469 -36.25 C 14.816406 -34.148438 13.132812 -32.046875 12.082031 -30.050781 C 8.929688 -24.273438 -5.148438 -6.621094 5.464844 -1.996094 C 14.921875 2.207031 21.332031 -13.238281 25.007812 -19.125 C 28.789062 -12.925781 32.886719 -0.105469 41.609375 0 Z M 41.609375 0 "/></g></g></g><g fill="#2b2b2b" fill-opacity="1"><g transform="translate(169.137382, 234.898821)"><g><path d="M 0.484375 -6.46875 L 3.03125 -6.46875 C 3.601562 -6.46875 4.109375 -6.335938 4.546875 -6.078125 C 4.984375 -5.828125 5.320312 -5.457031 5.5625 -4.96875 C 5.800781 -4.488281 5.921875 -3.914062 5.921875 -3.25 C 5.921875 -2.5625 5.796875 -1.972656 5.546875 -1.484375 C 5.304688 -1.003906 4.96875 -0.640625 4.53125 -0.390625 C 4.09375 -0.140625 3.585938 -0.015625 3.015625 -0.015625 L 0.484375 -0.015625 Z M 2.75 -1.296875 C 3.25 -1.296875 3.644531 -1.441406 3.9375 -1.734375 C 4.238281 -2.023438 4.390625 -2.53125 4.390625 -3.25 C 4.390625 -3.96875 4.242188 -4.472656 3.953125 -4.765625 C 3.660156 -5.054688 3.257812 -5.203125 2.75 -5.203125 L 1.875 -5.203125 L 1.875 -1.296875 Z M 2.75 -1.296875 "/></g></g></g><g fill="#2b2b2b" fill-opacity="1"><g transform="translate(176.194126, 234.898821)"><g><path d="M 1.9375 -5.203125 L 1.9375 -3.828125 L 4.390625 -3.828125 L 4.390625 -2.71875 L 1.9375 -2.71875 L 1.9375 -1.25 L 4.84375 -1.25 L 4.84375 0 L 0.484375 0 L 0.484375 -6.46875 L 4.84375 -6.46875 L 4.84375 -5.203125 Z M 1.9375 -5.203125 "/></g></g></g><g fill="#2b2b2b" fill-opacity="1"><g transform="translate(182.225616, 234.898821)"><g><path d="M 2.875 0.078125 C 2.351562 0.078125 1.898438 -0.0195312 1.515625 -0.21875 C 1.140625 -0.425781 0.851562 -0.691406 0.65625 -1.015625 C 0.46875 -1.347656 0.375 -1.691406 0.375 -2.046875 L 0.375 -2.125 L 1.953125 -2.125 L 1.953125 -2.0625 C 1.953125 -1.84375 2.03125 -1.640625 2.1875 -1.453125 C 2.351562 -1.265625 2.59375 -1.171875 2.90625 -1.171875 C 3.164062 -1.171875 3.375 -1.238281 3.53125 -1.375 C 3.695312 -1.507812 3.78125 -1.6875 3.78125 -1.90625 C 3.78125 -2.101562 3.707031 -2.257812 3.5625 -2.375 C 3.425781 -2.5 3.253906 -2.582031 3.046875 -2.625 L 2.3125 -2.78125 C 1.875 -2.875 1.46875 -3.054688 1.09375 -3.328125 C 0.71875 -3.597656 0.53125 -4.039062 0.53125 -4.65625 C 0.53125 -5.0625 0.628906 -5.40625 0.828125 -5.6875 C 1.023438 -5.976562 1.296875 -6.203125 1.640625 -6.359375 C 1.984375 -6.515625 2.375 -6.59375 2.8125 -6.59375 C 3.3125 -6.59375 3.738281 -6.492188 4.09375 -6.296875 C 4.457031 -6.109375 4.734375 -5.863281 4.921875 -5.5625 C 5.109375 -5.257812 5.203125 -4.941406 5.203125 -4.609375 L 5.203125 -4.5625 L 3.625 -4.5625 L 3.625 -4.59375 C 3.625 -4.789062 3.550781 -4.972656 3.40625 -5.140625 C 3.269531 -5.304688 3.050781 -5.390625 2.75 -5.390625 C 2.519531 -5.390625 2.332031 -5.320312 2.1875 -5.1875 C 2.050781 -5.0625 1.984375 -4.894531 1.984375 -4.6875 C 1.984375 -4.488281 2.0625 -4.328125 2.21875 -4.203125 C 2.375 -4.085938 2.554688 -4.007812 2.765625 -3.96875 L 3.515625 -3.796875 C 4.003906 -3.691406 4.421875 -3.492188 4.765625 -3.203125 C 5.109375 -2.921875 5.28125 -2.503906 5.28125 -1.953125 C 5.28125 -1.546875 5.175781 -1.1875 4.96875 -0.875 C 4.757812 -0.570312 4.472656 -0.335938 4.109375 -0.171875 C 3.742188 -0.00390625 3.332031 0.078125 2.875 0.078125 Z M 2.875 0.078125 "/></g></g></g><g fill="#2b2b2b" fill-opacity="1"><g transform="translate(188.617333, 234.898821)"><g><path d="M 0.546875 -6.46875 L 2 -6.46875 L 2 0 L 0.546875 0 Z M 0.546875 -6.46875 "/></g></g></g><g fill="#2b2b2b" fill-opacity="1"><g transform="translate(191.970212, 234.898821)"><g><path d="M 3.171875 0.078125 C 2.566406 0.078125 2.050781 -0.078125 1.625 -0.390625 C 1.207031 -0.703125 0.894531 -1.109375 0.6875 -1.609375 C 0.476562 -2.117188 0.375 -2.660156 0.375 -3.234375 C 0.375 -3.828125 0.484375 -4.378906 0.703125 -4.890625 C 0.921875 -5.398438 1.25 -5.8125 1.6875 -6.125 C 2.132812 -6.4375 2.679688 -6.59375 3.328125 -6.59375 C 4.054688 -6.59375 4.65625 -6.382812 5.125 -5.96875 C 5.601562 -5.5625 5.9375 -5.03125 6.125 -4.375 L 4.609375 -4.375 C 4.523438 -4.664062 4.375 -4.894531 4.15625 -5.0625 C 3.945312 -5.238281 3.671875 -5.328125 3.328125 -5.328125 C 2.847656 -5.328125 2.476562 -5.132812 2.21875 -4.75 C 1.957031 -4.363281 1.828125 -3.84375 1.828125 -3.1875 C 1.828125 -2.507812 1.960938 -1.984375 2.234375 -1.609375 C 2.515625 -1.242188 2.90625 -1.0625 3.40625 -1.0625 C 3.832031 -1.0625 4.160156 -1.191406 4.390625 -1.453125 C 4.617188 -1.722656 4.734375 -2.035156 4.734375 -2.390625 L 4.734375 -2.515625 L 3.53125 -2.515625 L 3.53125 -3.53125 L 6.15625 -3.53125 L 6.15625 0 L 5.09375 0 L 5.09375 -0.921875 L 5.015625 -0.921875 C 4.648438 -0.253906 4.035156 0.078125 3.171875 0.078125 Z M 3.171875 0.078125 "/></g></g></g><g fill="#2b2b2b" fill-opacity="1"><g transform="translate(199.396427, 234.898821)"><g><path d="M 0.484375 -6.46875 L 2.15625 -6.46875 L 4.515625 -2.203125 L 4.546875 -2.203125 L 4.546875 -6.46875 L 5.96875 -6.46875 L 5.96875 0.015625 L 4.28125 0.015625 L 1.9375 -4.09375 L 1.90625 -4.09375 L 1.90625 0.015625 L 0.484375 0.015625 Z M 0.484375 -6.46875 "/></g></g></g></svg>