<svg xmlns="http://www.w3.org/2000/svg" xmlns:xlink="http://www.w3.org/1999/xlink" width="500" zoomAndPan="magnify" viewBox="0 0 375 374.999991" height="500" preserveAspectRatio="xMidYMid meet" version="1.0"><defs><g/><clipPath id="74bf2fab4d"><path d="M 78.585938 149.015625 L 296.078125 149.015625 L 296.078125 222.972656 L 78.585938 222.972656 Z M 78.585938 149.015625 " clip-rule="nonzero"/></clipPath><clipPath id="df59327f00"><path d="M 198.617188 216.175781 L 282.6875 216.175781 L 282.6875 225.90625 L 198.617188 225.90625 Z M 198.617188 216.175781 " clip-rule="nonzero"/></clipPath><clipPath id="e921cad5c1"><path d="M 61.402344 167.714844 L 95.75 167.714844 L 95.75 204.265625 L 61.402344 204.265625 Z M 61.402344 167.714844 " clip-rule="nonzero"/></clipPath></defs><g clip-path="url(#74bf2fab4d)"><path stroke-linecap="butt" transform="matrix(0.75, 0, 0, 0.75, 78.586053, 149.017301)" fill="none" stroke-linejoin="miter" d="M -0.000153919 -0.00223415 L 290.42693 -0.00223415 L 290.42693 98.607141 L -0.000153919 98.607141 Z M -0.000153919 -0.00223415 " stroke="#000000" stroke-width="8" stroke-opacity="1" stroke-miterlimit="4"/></g><g clip-path="url(#df59327f00)"><path fill="#ffffff" d="M 198.617188 225.90625 L 198.617188 216.175781 L 282.6875 216.175781 L 282.6875 225.90625 Z M 198.617188 225.90625 " fill-opacity="1" fill-rule="nonzero"/></g><g clip-path="url(#e921cad5c1)"><path fill="#ffffff" d="M 95.75 204.265625 L 61.402344 204.265625 L 61.402344 167.769531 L 95.75 167.769531 Z M 95.75 204.265625 " fill-opacity="1" fill-rule="nonzero"/></g><g fill="#000000" fill-opacity="1"><g transform="translate(55.07317, 200.453793)"><g><path d="M 14.84375 -36.328125 L 17.4375 -12.859375 L 17.53125 -12.859375 L 28.859375 -36.328125 L 36.375 -36.328125 L 39.796875 -12.859375 L 39.890625 -12.859375 L 50.4375 -36.328125 L 60.265625 -36.328125 L 42.921875 0 L 33.28125 0 L 30.25 -21.046875 L 30.15625 -21.046875 L 19.703125 0 L 10.109375 0 L 5.015625 -36.328125 Z M 14.84375 -36.328125 "/></g></g></g><g fill="#000000" fill-opacity="1"><g transform="translate(103.777176, 200.453793)"><g><path d="M 29.484375 -36.328125 L 28.234375 -28.328125 L 17 -28.328125 L 16.046875 -22.25 L 26.6875 -22.25 L 25.4375 -14.265625 L 14.78125 -14.265625 L 13.78125 -8 L 25 -8 L 23.75 0 L 3.078125 0 L 8.8125 -36.328125 Z M 29.484375 -36.328125 "/></g></g></g><g fill="#000000" fill-opacity="1"><g transform="translate(125.166187, 200.453793)"><g><path d="M 22.5 -36.328125 C 25.414062 -36.328125 27.691406 -35.738281 29.328125 -34.5625 C 30.972656 -33.394531 31.796875 -31.617188 31.796875 -29.234375 C 31.796875 -24.453125 30.015625 -21.195312 26.453125 -19.46875 L 26.453125 -19.359375 C 30.523438 -18.816406 32.5625 -16.488281 32.5625 -12.375 C 32.5625 -8.488281 31.234375 -5.453125 28.578125 -3.265625 C 25.929688 -1.085938 22.363281 0 17.875 0 L 3.078125 0 L 8.8125 -36.328125 Z M 17.15625 -29.09375 L 16.046875 -22.0625 L 17.296875 -22.0625 C 20.953125 -22.0625 22.78125 -23.488281 22.78125 -26.34375 C 22.78125 -27.28125 22.425781 -27.972656 21.71875 -28.421875 C 21.019531 -28.867188 19.816406 -29.09375 18.109375 -29.09375 Z M 13.6875 -7.21875 L 15.796875 -7.21875 C 18.460938 -7.21875 20.34375 -7.617188 21.4375 -8.421875 C 22.53125 -9.234375 23.078125 -10.359375 23.078125 -11.796875 C 23.078125 -12.953125 22.65625 -13.78125 21.8125 -14.28125 C 20.976562 -14.78125 19.550781 -15.03125 17.53125 -15.03125 L 14.890625 -15.03125 Z M 13.6875 -7.21875 "/></g></g></g><g fill="#000000" fill-opacity="1"><g transform="translate(152.673383, 200.453793)"><g><path d="M 21.296875 -37.28125 C 25.179688 -37.28125 28.828125 -36.285156 32.234375 -34.296875 L 27.3125 -26.96875 C 25.613281 -28.582031 23.65625 -29.390625 21.4375 -29.390625 C 20.28125 -29.390625 19.226562 -29.054688 18.28125 -28.390625 C 17.332031 -27.734375 16.859375 -26.925781 16.859375 -25.96875 C 16.859375 -25.257812 17.195312 -24.640625 17.875 -24.109375 C 18.550781 -23.578125 19.785156 -23.054688 21.578125 -22.546875 C 24.015625 -21.804688 25.78125 -21.085938 26.875 -20.390625 C 27.96875 -19.703125 28.816406 -18.851562 29.421875 -17.84375 C 30.035156 -16.832031 30.34375 -15.570312 30.34375 -14.0625 C 30.34375 -11.882812 29.78125 -9.570312 28.65625 -7.125 C 27.53125 -4.6875 25.691406 -2.742188 23.140625 -1.296875 C 20.585938 0.140625 17.5625 0.894531 14.0625 0.96875 C 9.570312 0.96875 5.523438 -0.410156 1.921875 -3.171875 L 7.171875 -10.796875 C 9.679688 -8.285156 12.269531 -7.03125 14.9375 -7.03125 C 16.414062 -7.03125 17.660156 -7.414062 18.671875 -8.1875 C 19.679688 -8.957031 20.1875 -9.9375 20.1875 -11.125 C 20.1875 -12.664062 18.644531 -13.851562 15.5625 -14.6875 C 11.832031 -15.71875 9.421875 -16.816406 8.328125 -17.984375 C 7.242188 -19.160156 6.703125 -20.726562 6.703125 -22.6875 C 6.703125 -26.800781 8.101562 -30.257812 10.90625 -33.0625 C 13.71875 -35.875 17.179688 -37.28125 21.296875 -37.28125 Z M 21.296875 -37.28125 "/></g></g></g><g fill="#000000" fill-opacity="1"><g transform="translate(177.193743, 200.453793)"><g><path d="M 18.25 -36.328125 L 12.53125 0 L 3.078125 0 L 8.8125 -36.328125 Z M 18.25 -36.328125 "/></g></g></g><g fill="#000000" fill-opacity="1"><g transform="translate(187.6953, 200.453793)"><g><path d="M 31.078125 -36.328125 L 29.8125 -28.328125 L 22.015625 -28.328125 L 17.53125 0 L 8.09375 0 L 12.578125 -28.328125 L 4.765625 -28.328125 L 6.015625 -36.328125 Z M 31.078125 -36.328125 "/></g></g></g><g fill="#000000" fill-opacity="1"><g transform="translate(208.265341, 200.453793)"><g><path d="M 29.484375 -36.328125 L 28.234375 -28.328125 L 17 -28.328125 L 16.046875 -22.25 L 26.6875 -22.25 L 25.4375 -14.265625 L 14.78125 -14.265625 L 13.78125 -8 L 25 -8 L 23.75 0 L 3.078125 0 L 8.8125 -36.328125 Z M 29.484375 -36.328125 "/></g></g></g><g fill="#000000" fill-opacity="1"><g transform="translate(196.05988, 237.43648)"><g><path d="M 22.25 -36.328125 C 25.269531 -36.328125 27.976562 -35.660156 30.375 -34.328125 C 32.769531 -32.992188 34.648438 -31.15625 36.015625 -28.8125 C 37.378906 -26.46875 38.0625 -23.960938 38.0625 -21.296875 C 38.0625 -17.628906 37.070312 -14.148438 35.09375 -10.859375 C 33.113281 -7.566406 30.4375 -4.929688 27.0625 -2.953125 C 23.695312 -0.984375 20.179688 0 16.515625 0 L 3.078125 0 L 8.8125 -36.328125 Z M 13.78125 -8 L 15.609375 -8 C 19.429688 -8 22.472656 -9.128906 24.734375 -11.390625 C 26.992188 -13.648438 28.125 -16.582031 28.125 -20.1875 C 28.125 -22.625 27.363281 -24.585938 25.84375 -26.078125 C 24.320312 -27.578125 22.050781 -28.328125 19.03125 -28.328125 L 17 -28.328125 Z M 13.78125 -8 "/></g></g></g><g fill="#000000" fill-opacity="1"><g transform="translate(227.180171, 237.43648)"><g><path d="M 29.484375 -36.328125 L 28.234375 -28.328125 L 17 -28.328125 L 16.046875 -22.25 L 26.6875 -22.25 L 25.4375 -14.265625 L 14.78125 -14.265625 L 13.78125 -8 L 25 -8 L 23.75 0 L 3.078125 0 L 8.8125 -36.328125 Z M 29.484375 -36.328125 "/></g></g></g><g fill="#000000" fill-opacity="1"><g transform="translate(248.569181, 237.43648)"><g><path d="M 15.265625 -36.328125 L 20.5625 -14.265625 L 32.859375 -36.328125 L 43.109375 -36.328125 L 21.875 0 L 14.546875 0 L 5.015625 -36.328125 Z M 15.265625 -36.328125 "/></g></g></g></svg>